<svg width="984" height="579" viewBox="0 0 984 579" fill="none" xmlns="http://www.w3.org/2000/svg">
<path d="M509.404 566.6H510.88V575H509.5V569.012L506.944 573.236H506.776L504.22 569V575H502.84V566.6H504.328L506.86 570.8L509.404 566.6ZM517.547 574.244C516.939 574.852 516.191 575.156 515.303 575.156C514.415 575.156 513.667 574.852 513.059 574.244C512.443 573.628 512.135 572.88 512.135 572C512.135 571.12 512.443 570.372 513.059 569.756C513.667 569.148 514.415 568.844 515.303 568.844C516.191 568.844 516.939 569.148 517.547 569.756C518.163 570.372 518.471 571.12 518.471 572C518.471 572.88 518.163 573.628 517.547 574.244ZM513.431 572C513.431 572.544 513.611 572.996 513.971 573.356C514.331 573.716 514.775 573.896 515.303 573.896C515.831 573.896 516.275 573.716 516.635 573.356C516.995 572.996 517.175 572.544 517.175 572C517.175 571.456 516.995 571.004 516.635 570.644C516.275 570.284 515.831 570.104 515.303 570.104C514.775 570.104 514.331 570.284 513.971 570.644C513.611 571.004 513.431 571.456 513.431 572ZM522.799 568.844C523.495 568.844 524.051 569.068 524.467 569.516C524.891 569.956 525.103 570.556 525.103 571.316V575H523.807V571.448C523.807 571 523.687 570.656 523.447 570.416C523.207 570.176 522.879 570.056 522.463 570.056C521.991 570.056 521.619 570.204 521.347 570.5C521.075 570.788 520.939 571.216 520.939 571.784V575H519.643V569H520.939V569.768C521.339 569.152 521.959 568.844 522.799 568.844ZM529.846 569V570.248H528.358V573.128C528.358 573.376 528.414 573.556 528.526 573.668C528.638 573.772 528.802 573.832 529.018 573.848C529.242 573.856 529.518 573.852 529.846 573.836V575C528.854 575.12 528.142 575.036 527.71 574.748C527.278 574.452 527.062 573.912 527.062 573.128V570.248H525.958V569H527.062V567.704L528.358 567.32V569H529.846ZM534.178 568.844C534.874 568.844 535.43 569.068 535.846 569.516C536.27 569.956 536.482 570.556 536.482 571.316V575H535.186V571.448C535.186 571 535.066 570.656 534.826 570.416C534.586 570.176 534.258 570.056 533.842 570.056C533.37 570.056 532.998 570.204 532.726 570.5C532.454 570.788 532.318 571.216 532.318 571.784V575H531.022V566.6H532.318V569.768C532.718 569.152 533.338 568.844 534.178 568.844ZM545.953 574.244C545.345 574.852 544.597 575.156 543.709 575.156C542.821 575.156 542.073 574.852 541.465 574.244C540.849 573.628 540.541 572.88 540.541 572C540.541 571.12 540.849 570.372 541.465 569.756C542.073 569.148 542.821 568.844 543.709 568.844C544.597 568.844 545.345 569.148 545.953 569.756C546.569 570.372 546.877 571.12 546.877 572C546.877 572.88 546.569 573.628 545.953 574.244ZM541.837 572C541.837 572.544 542.017 572.996 542.377 573.356C542.737 573.716 543.181 573.896 543.709 573.896C544.237 573.896 544.681 573.716 545.041 573.356C545.401 572.996 545.581 572.544 545.581 572C545.581 571.456 545.401 571.004 545.041 570.644C544.681 570.284 544.237 570.104 543.709 570.104C543.181 570.104 542.737 570.284 542.377 570.644C542.017 571.004 541.837 571.456 541.837 572ZM550.982 566.444V567.692C550.038 567.612 549.566 568.008 549.566 568.88V569H550.982V570.248H549.566V575H548.27V570.248H547.358V569H548.27V568.88C548.27 568.048 548.502 567.42 548.966 566.996C549.43 566.572 550.102 566.388 550.982 566.444ZM558.088 569V570.248H556.6V573.128C556.6 573.376 556.656 573.556 556.768 573.668C556.88 573.772 557.044 573.832 557.26 573.848C557.484 573.856 557.76 573.852 558.088 573.836V575C557.096 575.12 556.384 575.036 555.952 574.748C555.52 574.452 555.304 573.912 555.304 573.128V570.248H554.2V569H555.304V567.704L556.6 567.32V569H558.088ZM562.42 568.844C563.116 568.844 563.672 569.068 564.088 569.516C564.512 569.956 564.724 570.556 564.724 571.316V575H563.428V571.448C563.428 571 563.308 570.656 563.068 570.416C562.828 570.176 562.5 570.056 562.084 570.056C561.612 570.056 561.24 570.204 560.968 570.5C560.696 570.788 560.56 571.216 560.56 571.784V575H559.264V566.6H560.56V569.768C560.96 569.152 561.58 568.844 562.42 568.844ZM571.915 572.552H567.139C567.235 573 567.451 573.348 567.787 573.596C568.131 573.844 568.555 573.968 569.059 573.968C569.739 573.968 570.255 573.72 570.607 573.224L571.675 573.848C571.091 574.72 570.215 575.156 569.047 575.156C568.079 575.156 567.291 574.86 566.683 574.268C566.083 573.668 565.783 572.912 565.783 572C565.783 571.112 566.079 570.364 566.671 569.756C567.255 569.148 568.015 568.844 568.951 568.844C569.823 568.844 570.543 569.152 571.111 569.768C571.679 570.384 571.963 571.132 571.963 572.012C571.963 572.172 571.947 572.352 571.915 572.552ZM567.127 571.496H570.655C570.567 571.024 570.367 570.66 570.055 570.404C569.751 570.148 569.379 570.02 568.939 570.02C568.459 570.02 568.059 570.152 567.739 570.416C567.419 570.68 567.215 571.04 567.127 571.496ZM578.612 573.356L580.148 569H581.528L579.224 575.192C578.648 576.744 577.672 577.48 576.296 577.4V576.188C576.696 576.212 577.02 576.128 577.268 575.936C577.516 575.744 577.724 575.436 577.892 575.012L577.952 574.892L575.408 569H576.824L578.612 573.356ZM587.9 572.552H583.124C583.22 573 583.436 573.348 583.772 573.596C584.116 573.844 584.54 573.968 585.044 573.968C585.724 573.968 586.24 573.72 586.592 573.224L587.66 573.848C587.076 574.72 586.2 575.156 585.032 575.156C584.064 575.156 583.276 574.86 582.668 574.268C582.068 573.668 581.768 572.912 581.768 572C581.768 571.112 582.064 570.364 582.656 569.756C583.24 569.148 584 568.844 584.936 568.844C585.808 568.844 586.528 569.152 587.096 569.768C587.664 570.384 587.948 571.132 587.948 572.012C587.948 572.172 587.932 572.352 587.9 572.552ZM583.112 571.496H586.64C586.552 571.024 586.352 570.66 586.04 570.404C585.736 570.148 585.364 570.02 584.924 570.02C584.444 570.02 584.044 570.152 583.724 570.416C583.404 570.68 583.2 571.04 583.112 571.496ZM593.805 569.852V569H595.101V575H593.805V574.136C593.317 574.816 592.617 575.156 591.705 575.156C590.881 575.156 590.177 574.852 589.593 574.244C589.009 573.636 588.717 572.888 588.717 572C588.717 571.112 589.009 570.364 589.593 569.756C590.177 569.148 590.881 568.844 591.705 568.844C592.617 568.844 593.317 569.18 593.805 569.852ZM590.553 573.38C590.913 573.74 591.365 573.92 591.909 573.92C592.453 573.92 592.905 573.74 593.265 573.38C593.625 573.012 593.805 572.552 593.805 572C593.805 571.448 593.625 570.992 593.265 570.632C592.905 570.264 592.453 570.08 591.909 570.08C591.365 570.08 590.913 570.264 590.553 570.632C590.193 570.992 590.013 571.448 590.013 572C590.013 572.544 590.193 573.004 590.553 573.38ZM597.907 569V570.008C598.235 569.264 598.851 568.892 599.755 568.892V570.296C599.267 570.264 598.835 570.384 598.459 570.656C598.091 570.92 597.907 571.36 597.907 571.976V575H596.611V569H597.907Z" fill="#202020"/>
<path d="M3.1 232.32L3.1 226.2H4.42V228.564H11.5V229.944H4.42V232.32H3.1ZM10.744 221.266C11.352 221.874 11.656 222.622 11.656 223.51C11.656 224.398 11.352 225.146 10.744 225.754C10.128 226.37 9.38 226.678 8.5 226.678C7.62 226.678 6.872 226.37 6.256 225.754C5.648 225.146 5.344 224.398 5.344 223.51C5.344 222.622 5.648 221.874 6.256 221.266C6.872 220.65 7.62 220.342 8.5 220.342C9.38 220.342 10.128 220.65 10.744 221.266ZM8.5 225.382C9.044 225.382 9.496 225.202 9.856 224.842C10.216 224.482 10.396 224.038 10.396 223.51C10.396 222.982 10.216 222.538 9.856 222.178C9.496 221.818 9.044 221.638 8.5 221.638C7.956 221.638 7.504 221.818 7.144 222.178C6.784 222.538 6.604 222.982 6.604 223.51C6.604 224.038 6.784 224.482 7.144 224.842C7.504 225.202 7.956 225.382 8.5 225.382ZM5.5 215.939H6.748V217.427H9.628C9.876 217.427 10.056 217.371 10.168 217.259C10.272 217.147 10.332 216.983 10.348 216.767C10.356 216.543 10.352 216.267 10.336 215.939H11.5C11.62 216.931 11.536 217.643 11.248 218.075C10.952 218.507 10.412 218.723 9.628 218.723H6.748V219.827H5.5V218.723H4.204L3.82 217.427H5.5V215.939ZM6.352 210.258H5.5V208.962H11.5V210.258H10.636C11.316 210.746 11.656 211.446 11.656 212.358C11.656 213.182 11.352 213.886 10.744 214.47C10.136 215.054 9.388 215.346 8.5 215.346C7.612 215.346 6.864 215.054 6.256 214.47C5.648 213.886 5.344 213.182 5.344 212.358C5.344 211.446 5.68 210.746 6.352 210.258ZM9.88 213.51C10.24 213.15 10.42 212.698 10.42 212.154C10.42 211.61 10.24 211.158 9.88 210.798C9.512 210.438 9.052 210.258 8.5 210.258C7.948 210.258 7.492 210.438 7.132 210.798C6.764 211.158 6.58 211.61 6.58 212.154C6.58 212.698 6.764 213.15 7.132 213.51C7.492 213.87 7.948 214.05 8.5 214.05C9.044 214.05 9.504 213.87 9.88 213.51ZM11.5 206.155V207.451H2.74L2.74 206.155H11.5ZM7.156 200.486C7.34 200.486 7.492 200.39 7.612 200.198C7.724 200.006 7.832 199.726 7.936 199.358C8 199.078 8.068 198.834 8.14 198.626C8.212 198.418 8.32 198.198 8.464 197.966C8.6 197.734 8.784 197.558 9.016 197.438C9.24 197.31 9.504 197.25 9.808 197.258C10.384 197.258 10.836 197.482 11.164 197.93C11.492 198.378 11.656 198.934 11.656 199.598C11.656 200.19 11.532 200.698 11.284 201.122C11.036 201.546 10.692 201.854 10.252 202.046L9.604 200.93C10.18 200.73 10.468 200.286 10.468 199.598C10.468 198.918 10.244 198.578 9.796 198.578C9.468 198.578 9.212 198.958 9.028 199.718C8.956 200.006 8.884 200.25 8.812 200.45C8.74 200.642 8.636 200.858 8.5 201.098C8.364 201.33 8.184 201.51 7.96 201.638C7.736 201.758 7.476 201.814 7.18 201.806C6.628 201.806 6.184 201.598 5.848 201.182C5.512 200.758 5.344 200.234 5.344 199.61C5.344 199.114 5.456 198.674 5.68 198.29C5.896 197.898 6.2 197.598 6.592 197.39L7.204 198.482C6.748 198.682 6.52 199.058 6.52 199.61C6.52 199.866 6.576 200.078 6.688 200.246C6.8 200.406 6.956 200.486 7.156 200.486ZM6.352 191.519H5.5V190.223H11.5V191.519H10.636C11.316 192.007 11.656 192.707 11.656 193.619C11.656 194.443 11.352 195.147 10.744 195.731C10.136 196.315 9.388 196.607 8.5 196.607C7.612 196.607 6.864 196.315 6.256 195.731C5.648 195.147 5.344 194.443 5.344 193.619C5.344 192.707 5.68 192.007 6.352 191.519ZM9.88 194.771C10.24 194.411 10.42 193.959 10.42 193.415C10.42 192.871 10.24 192.419 9.88 192.059C9.512 191.699 9.052 191.519 8.5 191.519C7.948 191.519 7.492 191.699 7.132 192.059C6.764 192.419 6.58 192.871 6.58 193.415C6.58 193.959 6.764 194.411 7.132 194.771C7.492 195.131 7.948 195.311 8.5 195.311C9.044 195.311 9.504 195.131 9.88 194.771ZM11.5 187.417V188.713H2.74V187.417H11.5ZM9.052 180.116V184.892C9.5 184.796 9.848 184.58 10.096 184.244C10.344 183.9 10.468 183.476 10.468 182.972C10.468 182.292 10.22 181.776 9.724 181.424L10.348 180.356C11.22 180.94 11.656 181.816 11.656 182.984C11.656 183.952 11.36 184.74 10.768 185.348C10.168 185.948 9.412 186.248 8.5 186.248C7.612 186.248 6.864 185.952 6.256 185.36C5.648 184.776 5.344 184.016 5.344 183.08C5.344 182.208 5.652 181.488 6.268 180.92C6.884 180.352 7.632 180.068 8.512 180.068C8.672 180.068 8.852 180.084 9.052 180.116ZM7.996 184.904L7.996 181.376C7.524 181.464 7.16 181.664 6.904 181.976C6.648 182.28 6.52 182.652 6.52 183.092C6.52 183.572 6.652 183.972 6.916 184.292C7.18 184.612 7.54 184.816 7.996 184.904ZM7.156 177.998C7.34 177.998 7.492 177.902 7.612 177.71C7.724 177.518 7.832 177.238 7.936 176.87C8 176.59 8.068 176.346 8.14 176.138C8.212 175.93 8.32 175.71 8.464 175.478C8.6 175.246 8.784 175.07 9.016 174.95C9.24 174.822 9.504 174.762 9.808 174.77C10.384 174.77 10.836 174.994 11.164 175.442C11.492 175.89 11.656 176.446 11.656 177.11C11.656 177.702 11.532 178.21 11.284 178.634C11.036 179.058 10.692 179.366 10.252 179.558L9.604 178.442C10.18 178.242 10.468 177.798 10.468 177.11C10.468 176.43 10.244 176.09 9.796 176.09C9.468 176.09 9.212 176.47 9.028 177.23C8.956 177.518 8.884 177.762 8.812 177.962C8.74 178.154 8.636 178.37 8.5 178.61C8.364 178.842 8.184 179.022 7.96 179.15C7.736 179.27 7.476 179.326 7.18 179.318C6.628 179.318 6.184 179.11 5.848 178.694C5.512 178.27 5.344 177.746 5.344 177.122C5.344 176.626 5.456 176.186 5.68 175.802C5.896 175.41 6.2 175.11 6.592 174.902L7.204 175.994C6.748 176.194 6.52 176.57 6.52 177.122C6.52 177.378 6.576 177.59 6.688 177.758C6.8 177.918 6.956 177.998 7.156 177.998Z" fill="#202020"/>
<path d="M43.2554 13.9235L46.2154 12.8995H47.1754V24.0995H46.0554V14.1315L43.5434 14.8835L43.2554 13.9235ZM50.0529 22.7395H51.3329L50.3729 26.3395H49.4129L50.0529 22.7395ZM59.9723 22.7235C59.2363 23.7688 58.1963 24.2915 56.8523 24.2915C55.519 24.2915 54.4736 23.7688 53.7163 22.7235C52.9803 21.6675 52.6123 20.2595 52.6123 18.4995C52.6123 16.7288 52.9803 15.3261 53.7163 14.2915C54.4736 13.2355 55.519 12.7075 56.8523 12.7075C58.1963 12.7075 59.2363 13.2355 59.9723 14.2915C60.719 15.3261 61.0923 16.7288 61.0923 18.4995C61.0923 20.2701 60.719 21.6781 59.9723 22.7235ZM54.5483 21.9715C55.1136 22.7928 55.8816 23.2035 56.8523 23.2035C57.8336 23.2035 58.5963 22.7928 59.1403 21.9715C59.695 21.1608 59.9723 20.0035 59.9723 18.4995C59.9723 16.9955 59.695 15.8381 59.1403 15.0275C58.5963 14.2061 57.8336 13.7955 56.8523 13.7955C55.8816 13.7955 55.1136 14.2061 54.5483 15.0275C54.0043 15.8488 53.7323 17.0061 53.7323 18.4995C53.7323 19.9928 54.0043 21.1501 54.5483 21.9715ZM70.0504 22.7235C69.3144 23.7688 68.2744 24.2915 66.9304 24.2915C65.5971 24.2915 64.5517 23.7688 63.7944 22.7235C63.0584 21.6675 62.6904 20.2595 62.6904 18.4995C62.6904 16.7288 63.0584 15.3261 63.7944 14.2915C64.5517 13.2355 65.5971 12.7075 66.9304 12.7075C68.2744 12.7075 69.3144 13.2355 70.0504 14.2915C70.7971 15.3261 71.1704 16.7288 71.1704 18.4995C71.1704 20.2701 70.7971 21.6781 70.0504 22.7235ZM64.6264 21.9715C65.1917 22.7928 65.9597 23.2035 66.9304 23.2035C67.9117 23.2035 68.6744 22.7928 69.2184 21.9715C69.7731 21.1608 70.0504 20.0035 70.0504 18.4995C70.0504 16.9955 69.7731 15.8381 69.2184 15.0275C68.6744 14.2061 67.9117 13.7955 66.9304 13.7955C65.9597 13.7955 65.1917 14.2061 64.6264 15.0275C64.0824 15.8488 63.8104 17.0061 63.8104 18.4995C63.8104 19.9928 64.0824 21.1501 64.6264 21.9715ZM80.1285 22.7235C79.3925 23.7688 78.3525 24.2915 77.0085 24.2915C75.6752 24.2915 74.6299 23.7688 73.8725 22.7235C73.1365 21.6675 72.7685 20.2595 72.7685 18.4995C72.7685 16.7288 73.1365 15.3261 73.8725 14.2915C74.6299 13.2355 75.6752 12.7075 77.0085 12.7075C78.3525 12.7075 79.3925 13.2355 80.1285 14.2915C80.8752 15.3261 81.2485 16.7288 81.2485 18.4995C81.2485 20.2701 80.8752 21.6781 80.1285 22.7235ZM74.7045 21.9715C75.2699 22.7928 76.0379 23.2035 77.0085 23.2035C77.9899 23.2035 78.7525 22.7928 79.2965 21.9715C79.8512 21.1608 80.1285 20.0035 80.1285 18.4995C80.1285 16.9955 79.8512 15.8381 79.2965 15.0275C78.7525 14.2061 77.9899 13.7955 77.0085 13.7955C76.0379 13.7955 75.2699 14.2061 74.7045 15.0275C74.1605 15.8488 73.8885 17.0061 73.8885 18.4995C73.8885 19.9928 74.1605 21.1501 74.7045 21.9715ZM84.2823 23.3795C84.2823 23.6248 84.197 23.8328 84.0263 24.0035C83.8556 24.1741 83.6476 24.2595 83.4023 24.2595C83.157 24.2595 82.949 24.1741 82.7783 24.0035C82.6076 23.8328 82.5223 23.6248 82.5223 23.3795C82.5223 23.1341 82.6076 22.9261 82.7783 22.7555C82.949 22.5848 83.157 22.4995 83.4023 22.4995C83.6476 22.4995 83.8556 22.5848 84.0263 22.7555C84.197 22.9261 84.2823 23.1341 84.2823 23.3795ZM92.9254 22.7235C92.1894 23.7688 91.1494 24.2915 89.8054 24.2915C88.4721 24.2915 87.4267 23.7688 86.6694 22.7235C85.9334 21.6675 85.5654 20.2595 85.5654 18.4995C85.5654 16.7288 85.9334 15.3261 86.6694 14.2915C87.4267 13.2355 88.4721 12.7075 89.8054 12.7075C91.1494 12.7075 92.1894 13.2355 92.9254 14.2915C93.6721 15.3261 94.0454 16.7288 94.0454 18.4995C94.0454 20.2701 93.6721 21.6781 92.9254 22.7235ZM87.5014 21.9715C88.0667 22.7928 88.8347 23.2035 89.8054 23.2035C90.7867 23.2035 91.5494 22.7928 92.0934 21.9715C92.6481 21.1608 92.9254 20.0035 92.9254 18.4995C92.9254 16.9955 92.6481 15.8381 92.0934 15.0275C91.5494 14.2061 90.7867 13.7955 89.8054 13.7955C88.8347 13.7955 88.0667 14.2061 87.5014 15.0275C86.9574 15.8488 86.6854 17.0061 86.6854 18.4995C86.6854 19.9928 86.9574 21.1501 87.5014 21.9715ZM103.004 22.7235C102.268 23.7688 101.228 24.2915 99.8835 24.2915C98.5502 24.2915 97.5049 23.7688 96.7475 22.7235C96.0115 21.6675 95.6435 20.2595 95.6435 18.4995C95.6435 16.7288 96.0115 15.3261 96.7475 14.2915C97.5049 13.2355 98.5502 12.7075 99.8835 12.7075C101.228 12.7075 102.268 13.2355 103.004 14.2915C103.75 15.3261 104.124 16.7288 104.124 18.4995C104.124 20.2701 103.75 21.6781 103.004 22.7235ZM97.5795 21.9715C98.1449 22.7928 98.9129 23.2035 99.8835 23.2035C100.865 23.2035 101.628 22.7928 102.172 21.9715C102.726 21.1608 103.004 20.0035 103.004 18.4995C103.004 16.9955 102.726 15.8381 102.172 15.0275C101.628 14.2061 100.865 13.7955 99.8835 13.7955C98.9129 13.7955 98.1449 14.2061 97.5795 15.0275C97.0355 15.8488 96.7635 17.0061 96.7635 18.4995C96.7635 19.9928 97.0355 21.1501 97.5795 21.9715Z" fill="#86909C"/>
<path d="M118.285 19.8042H983.59" stroke="#E5E6EB" stroke-width="1.67047" stroke-dasharray="6.68 6.68"/>
<path d="M59.3968 110.944C59.9728 111.21 60.4261 111.584 60.7568 112.064C61.0875 112.544 61.2528 113.082 61.2528 113.68C61.2528 114.693 60.8955 115.488 60.1808 116.064C59.4555 116.629 58.5648 116.912 57.5088 116.912C56.4528 116.912 55.5621 116.629 54.8368 116.064C54.1221 115.488 53.7648 114.693 53.7648 113.68C53.7648 113.082 53.9301 112.544 54.2608 112.064C54.5915 111.584 55.0448 111.21 55.6208 110.944C54.6288 110.378 54.1328 109.541 54.1328 108.432C54.1328 107.429 54.4635 106.661 55.1248 106.128C55.8075 105.594 56.6021 105.328 57.5088 105.328C58.4261 105.328 59.2155 105.594 59.8768 106.128C60.5488 106.661 60.8848 107.429 60.8848 108.432C60.8848 109.541 60.3888 110.378 59.3968 110.944ZM55.2528 108.432C55.2528 109.05 55.4661 109.541 55.8928 109.904C56.3301 110.266 56.8688 110.448 57.5088 110.448C58.1488 110.448 58.6821 110.266 59.1088 109.904C59.5461 109.541 59.7648 109.05 59.7648 108.432C59.7648 107.781 59.5568 107.285 59.1408 106.944C58.7248 106.592 58.1808 106.416 57.5088 106.416C56.8368 106.416 56.2928 106.592 55.8768 106.944C55.4608 107.285 55.2528 107.781 55.2528 108.432ZM55.6048 115.28C56.0741 115.642 56.7088 115.824 57.5088 115.824C58.3088 115.824 58.9435 115.642 59.4128 115.28C59.8928 114.906 60.1328 114.373 60.1328 113.68C60.1328 112.997 59.8928 112.469 59.4128 112.096C58.9221 111.722 58.2875 111.536 57.5088 111.536C56.7301 111.536 56.0955 111.722 55.6048 112.096C55.1248 112.469 54.8848 112.997 54.8848 113.68C54.8848 114.384 55.1248 114.917 55.6048 115.28ZM70.0504 115.344C69.3144 116.389 68.2744 116.912 66.9304 116.912C65.5971 116.912 64.5517 116.389 63.7944 115.344C63.0584 114.288 62.6904 112.88 62.6904 111.12C62.6904 109.349 63.0584 107.946 63.7944 106.912C64.5517 105.856 65.5971 105.328 66.9304 105.328C68.2744 105.328 69.3144 105.856 70.0504 106.912C70.7971 107.946 71.1704 109.349 71.1704 111.12C71.1704 112.89 70.7971 114.298 70.0504 115.344ZM64.6264 114.592C65.1917 115.413 65.9597 115.824 66.9304 115.824C67.9117 115.824 68.6744 115.413 69.2184 114.592C69.7731 113.781 70.0504 112.624 70.0504 111.12C70.0504 109.616 69.7731 108.458 69.2184 107.648C68.6744 106.826 67.9117 106.416 66.9304 106.416C65.9597 106.416 65.1917 106.826 64.6264 107.648C64.0824 108.469 63.8104 109.626 63.8104 111.12C63.8104 112.613 64.0824 113.77 64.6264 114.592ZM80.1285 115.344C79.3925 116.389 78.3525 116.912 77.0085 116.912C75.6752 116.912 74.6299 116.389 73.8725 115.344C73.1365 114.288 72.7685 112.88 72.7685 111.12C72.7685 109.349 73.1365 107.946 73.8725 106.912C74.6299 105.856 75.6752 105.328 77.0085 105.328C78.3525 105.328 79.3925 105.856 80.1285 106.912C80.8752 107.946 81.2485 109.349 81.2485 111.12C81.2485 112.89 80.8752 114.298 80.1285 115.344ZM74.7045 114.592C75.2699 115.413 76.0379 115.824 77.0085 115.824C77.9899 115.824 78.7525 115.413 79.2965 114.592C79.8512 113.781 80.1285 112.624 80.1285 111.12C80.1285 109.616 79.8512 108.458 79.2965 107.648C78.7525 106.826 77.9899 106.416 77.0085 106.416C76.0379 106.416 75.2699 106.826 74.7045 107.648C74.1605 108.469 73.8885 109.626 73.8885 111.12C73.8885 112.613 74.1605 113.77 74.7045 114.592ZM84.2823 116C84.2823 116.245 84.197 116.453 84.0263 116.624C83.8556 116.794 83.6476 116.88 83.4023 116.88C83.157 116.88 82.949 116.794 82.7783 116.624C82.6076 116.453 82.5223 116.245 82.5223 116C82.5223 115.754 82.6076 115.546 82.7783 115.376C82.949 115.205 83.157 115.12 83.4023 115.12C83.6476 115.12 83.8556 115.205 84.0263 115.376C84.197 115.546 84.2823 115.754 84.2823 116ZM92.9254 115.344C92.1894 116.389 91.1494 116.912 89.8054 116.912C88.4721 116.912 87.4267 116.389 86.6694 115.344C85.9334 114.288 85.5654 112.88 85.5654 111.12C85.5654 109.349 85.9334 107.946 86.6694 106.912C87.4267 105.856 88.4721 105.328 89.8054 105.328C91.1494 105.328 92.1894 105.856 92.9254 106.912C93.6721 107.946 94.0454 109.349 94.0454 111.12C94.0454 112.89 93.6721 114.298 92.9254 115.344ZM87.5014 114.592C88.0667 115.413 88.8347 115.824 89.8054 115.824C90.7867 115.824 91.5494 115.413 92.0934 114.592C92.6481 113.781 92.9254 112.624 92.9254 111.12C92.9254 109.616 92.6481 108.458 92.0934 107.648C91.5494 106.826 90.7867 106.416 89.8054 106.416C88.8347 106.416 88.0667 106.826 87.5014 107.648C86.9574 108.469 86.6854 109.626 86.6854 111.12C86.6854 112.613 86.9574 113.77 87.5014 114.592ZM103.004 115.344C102.268 116.389 101.228 116.912 99.8835 116.912C98.5502 116.912 97.5049 116.389 96.7475 115.344C96.0115 114.288 95.6435 112.88 95.6435 111.12C95.6435 109.349 96.0115 107.946 96.7475 106.912C97.5049 105.856 98.5502 105.328 99.8835 105.328C101.228 105.328 102.268 105.856 103.004 106.912C103.75 107.946 104.124 109.349 104.124 111.12C104.124 112.89 103.75 114.298 103.004 115.344ZM97.5795 114.592C98.1449 115.413 98.9129 115.824 99.8835 115.824C100.865 115.824 101.628 115.413 102.172 114.592C102.726 113.781 103.004 112.624 103.004 111.12C103.004 109.616 102.726 108.458 102.172 107.648C101.628 106.826 100.865 106.416 99.8835 106.416C98.9129 106.416 98.1449 106.826 97.5795 107.648C97.0355 108.469 96.7635 109.626 96.7635 111.12C96.7635 112.613 97.0355 113.77 97.5795 114.592Z" fill="#86909C"/>
<path d="M118.285 112.424H983.59" stroke="#E5E6EB" stroke-width="1.67047" stroke-dasharray="6.68 6.68"/>
<path d="M57.646 202.14C58.734 202.14 59.6354 202.487 60.35 203.18C61.054 203.874 61.406 204.759 61.406 205.836C61.406 206.935 61.054 207.826 60.35 208.508C59.6567 209.191 58.7554 209.532 57.646 209.532C56.5367 209.532 55.6354 209.191 54.942 208.508C54.238 207.826 53.886 206.935 53.886 205.836C53.886 204.994 54.1154 204.247 54.574 203.596L58.238 198.14H59.502L56.75 202.236C57.038 202.172 57.3367 202.14 57.646 202.14ZM55.726 207.724C56.2274 208.204 56.8674 208.444 57.646 208.444C58.4354 208.444 59.07 208.204 59.55 207.724C60.0407 207.244 60.286 206.615 60.286 205.836C60.286 205.058 60.0407 204.428 59.55 203.948C59.07 203.468 58.4354 203.228 57.646 203.228C56.8674 203.228 56.2274 203.468 55.726 203.948C55.246 204.428 55.006 205.058 55.006 205.836C55.006 206.615 55.246 207.244 55.726 207.724ZM70.0504 207.964C69.3144 209.01 68.2744 209.532 66.9304 209.532C65.5971 209.532 64.5517 209.01 63.7944 207.964C63.0584 206.908 62.6904 205.5 62.6904 203.74C62.6904 201.97 63.0584 200.567 63.7944 199.532C64.5517 198.476 65.5971 197.948 66.9304 197.948C68.2744 197.948 69.3144 198.476 70.0504 199.532C70.7971 200.567 71.1704 201.97 71.1704 203.74C71.1704 205.511 70.7971 206.919 70.0504 207.964ZM64.6264 207.212C65.1917 208.034 65.9597 208.444 66.9304 208.444C67.9117 208.444 68.6744 208.034 69.2184 207.212C69.7731 206.402 70.0504 205.244 70.0504 203.74C70.0504 202.236 69.7731 201.079 69.2184 200.268C68.6744 199.447 67.9117 199.036 66.9304 199.036C65.9597 199.036 65.1917 199.447 64.6264 200.268C64.0824 201.09 63.8104 202.247 63.8104 203.74C63.8104 205.234 64.0824 206.391 64.6264 207.212ZM80.1285 207.964C79.3925 209.01 78.3525 209.532 77.0085 209.532C75.6752 209.532 74.6299 209.01 73.8725 207.964C73.1365 206.908 72.7685 205.5 72.7685 203.74C72.7685 201.97 73.1365 200.567 73.8725 199.532C74.6299 198.476 75.6752 197.948 77.0085 197.948C78.3525 197.948 79.3925 198.476 80.1285 199.532C80.8752 200.567 81.2485 201.97 81.2485 203.74C81.2485 205.511 80.8752 206.919 80.1285 207.964ZM74.7045 207.212C75.2699 208.034 76.0379 208.444 77.0085 208.444C77.9899 208.444 78.7525 208.034 79.2965 207.212C79.8512 206.402 80.1285 205.244 80.1285 203.74C80.1285 202.236 79.8512 201.079 79.2965 200.268C78.7525 199.447 77.9899 199.036 77.0085 199.036C76.0379 199.036 75.2699 199.447 74.7045 200.268C74.1605 201.09 73.8885 202.247 73.8885 203.74C73.8885 205.234 74.1605 206.391 74.7045 207.212ZM84.2823 208.62C84.2823 208.866 84.197 209.074 84.0263 209.244C83.8556 209.415 83.6476 209.5 83.4023 209.5C83.157 209.5 82.949 209.415 82.7783 209.244C82.6076 209.074 82.5223 208.866 82.5223 208.62C82.5223 208.375 82.6076 208.167 82.7783 207.996C82.949 207.826 83.157 207.74 83.4023 207.74C83.6476 207.74 83.8556 207.826 84.0263 207.996C84.197 208.167 84.2823 208.375 84.2823 208.62ZM92.9254 207.964C92.1894 209.01 91.1494 209.532 89.8054 209.532C88.4721 209.532 87.4267 209.01 86.6694 207.964C85.9334 206.908 85.5654 205.5 85.5654 203.74C85.5654 201.97 85.9334 200.567 86.6694 199.532C87.4267 198.476 88.4721 197.948 89.8054 197.948C91.1494 197.948 92.1894 198.476 92.9254 199.532C93.6721 200.567 94.0454 201.97 94.0454 203.74C94.0454 205.511 93.6721 206.919 92.9254 207.964ZM87.5014 207.212C88.0667 208.034 88.8347 208.444 89.8054 208.444C90.7867 208.444 91.5494 208.034 92.0934 207.212C92.6481 206.402 92.9254 205.244 92.9254 203.74C92.9254 202.236 92.6481 201.079 92.0934 200.268C91.5494 199.447 90.7867 199.036 89.8054 199.036C88.8347 199.036 88.0667 199.447 87.5014 200.268C86.9574 201.09 86.6854 202.247 86.6854 203.74C86.6854 205.234 86.9574 206.391 87.5014 207.212ZM103.004 207.964C102.268 209.01 101.228 209.532 99.8835 209.532C98.5502 209.532 97.5049 209.01 96.7475 207.964C96.0115 206.908 95.6435 205.5 95.6435 203.74C95.6435 201.97 96.0115 200.567 96.7475 199.532C97.5049 198.476 98.5502 197.948 99.8835 197.948C101.228 197.948 102.268 198.476 103.004 199.532C103.75 200.567 104.124 201.97 104.124 203.74C104.124 205.511 103.75 206.919 103.004 207.964ZM97.5795 207.212C98.1449 208.034 98.9129 208.444 99.8835 208.444C100.865 208.444 101.628 208.034 102.172 207.212C102.726 206.402 103.004 205.244 103.004 203.74C103.004 202.236 102.726 201.079 102.172 200.268C101.628 199.447 100.865 199.036 99.8835 199.036C98.9129 199.036 98.1449 199.447 97.5795 200.268C97.0355 201.09 96.7635 202.247 96.7635 203.74C96.7635 205.234 97.0355 206.391 97.5795 207.212Z" fill="#86909C"/>
<path d="M118.285 205.045H983.59" stroke="#E5E6EB" stroke-width="1.67047" stroke-dasharray="6.68 6.68"/>
<path d="M60.0492 298.37H61.4892V299.426H60.0492V301.666H58.9292V299.426H53.0092V298.37L57.1692 290.466H58.4012L54.2412 298.37H58.9292V294.946H60.0492V298.37ZM70.0504 300.29C69.3144 301.335 68.2744 301.858 66.9304 301.858C65.5971 301.858 64.5517 301.335 63.7944 300.29C63.0584 299.234 62.6904 297.826 62.6904 296.066C62.6904 294.295 63.0584 292.892 63.7944 291.858C64.5517 290.802 65.5971 290.274 66.9304 290.274C68.2744 290.274 69.3144 290.802 70.0504 291.858C70.7971 292.892 71.1704 294.295 71.1704 296.066C71.1704 297.836 70.7971 299.244 70.0504 300.29ZM64.6264 299.538C65.1917 300.359 65.9597 300.77 66.9304 300.77C67.9117 300.77 68.6744 300.359 69.2184 299.538C69.7731 298.727 70.0504 297.57 70.0504 296.066C70.0504 294.562 69.7731 293.404 69.2184 292.594C68.6744 291.772 67.9117 291.362 66.9304 291.362C65.9597 291.362 65.1917 291.772 64.6264 292.594C64.0824 293.415 63.8104 294.572 63.8104 296.066C63.8104 297.559 64.0824 298.716 64.6264 299.538ZM80.1285 300.29C79.3925 301.335 78.3525 301.858 77.0085 301.858C75.6752 301.858 74.6299 301.335 73.8725 300.29C73.1365 299.234 72.7685 297.826 72.7685 296.066C72.7685 294.295 73.1365 292.892 73.8725 291.858C74.6299 290.802 75.6752 290.274 77.0085 290.274C78.3525 290.274 79.3925 290.802 80.1285 291.858C80.8752 292.892 81.2485 294.295 81.2485 296.066C81.2485 297.836 80.8752 299.244 80.1285 300.29ZM74.7045 299.538C75.2699 300.359 76.0379 300.77 77.0085 300.77C77.9899 300.77 78.7525 300.359 79.2965 299.538C79.8512 298.727 80.1285 297.57 80.1285 296.066C80.1285 294.562 79.8512 293.404 79.2965 292.594C78.7525 291.772 77.9899 291.362 77.0085 291.362C76.0379 291.362 75.2699 291.772 74.7045 292.594C74.1605 293.415 73.8885 294.572 73.8885 296.066C73.8885 297.559 74.1605 298.716 74.7045 299.538ZM84.2823 300.946C84.2823 301.191 84.197 301.399 84.0263 301.57C83.8556 301.74 83.6476 301.826 83.4023 301.826C83.157 301.826 82.949 301.74 82.7783 301.57C82.6076 301.399 82.5223 301.191 82.5223 300.946C82.5223 300.7 82.6076 300.492 82.7783 300.322C82.949 300.151 83.157 300.066 83.4023 300.066C83.6476 300.066 83.8556 300.151 84.0263 300.322C84.197 300.492 84.2823 300.7 84.2823 300.946ZM92.9254 300.29C92.1894 301.335 91.1494 301.858 89.8054 301.858C88.4721 301.858 87.4267 301.335 86.6694 300.29C85.9334 299.234 85.5654 297.826 85.5654 296.066C85.5654 294.295 85.9334 292.892 86.6694 291.858C87.4267 290.802 88.4721 290.274 89.8054 290.274C91.1494 290.274 92.1894 290.802 92.9254 291.858C93.6721 292.892 94.0454 294.295 94.0454 296.066C94.0454 297.836 93.6721 299.244 92.9254 300.29ZM87.5014 299.538C88.0667 300.359 88.8347 300.77 89.8054 300.77C90.7867 300.77 91.5494 300.359 92.0934 299.538C92.6481 298.727 92.9254 297.57 92.9254 296.066C92.9254 294.562 92.6481 293.404 92.0934 292.594C91.5494 291.772 90.7867 291.362 89.8054 291.362C88.8347 291.362 88.0667 291.772 87.5014 292.594C86.9574 293.415 86.6854 294.572 86.6854 296.066C86.6854 297.559 86.9574 298.716 87.5014 299.538ZM103.004 300.29C102.268 301.335 101.228 301.858 99.8835 301.858C98.5502 301.858 97.5049 301.335 96.7475 300.29C96.0115 299.234 95.6435 297.826 95.6435 296.066C95.6435 294.295 96.0115 292.892 96.7475 291.858C97.5049 290.802 98.5502 290.274 99.8835 290.274C101.228 290.274 102.268 290.802 103.004 291.858C103.75 292.892 104.124 294.295 104.124 296.066C104.124 297.836 103.75 299.244 103.004 300.29ZM97.5795 299.538C98.1449 300.359 98.9129 300.77 99.8835 300.77C100.865 300.77 101.628 300.359 102.172 299.538C102.726 298.727 103.004 297.57 103.004 296.066C103.004 294.562 102.726 293.404 102.172 292.594C101.628 291.772 100.865 291.362 99.8835 291.362C98.9129 291.362 98.1449 291.772 97.5795 292.594C97.0355 293.415 96.7635 294.572 96.7635 296.066C96.7635 297.559 97.0355 298.716 97.5795 299.538Z" fill="#86909C"/>
<path d="M118.285 297.666H983.59" stroke="#E5E6EB" stroke-width="1.67047" stroke-dasharray="6.68 6.68"/>
<path d="M61.4004 394.286H54.2804V393.278L58.3124 389.214C59.4644 388.062 60.0404 387.075 60.0404 386.254C60.0404 385.56 59.8217 385.011 59.3844 384.606C58.9577 384.19 58.4244 383.982 57.7844 383.982C56.6431 383.982 55.8057 384.51 55.2724 385.566L54.3284 385.006C54.6697 384.323 55.1444 383.8 55.7524 383.438C56.3604 383.075 57.0377 382.894 57.7844 382.894C58.6804 382.894 59.4644 383.198 60.1364 383.806C60.8191 384.392 61.1604 385.208 61.1604 386.254C61.1604 386.872 60.9897 387.48 60.6484 388.078C60.3071 388.664 59.7844 389.31 59.0804 390.014L55.8804 393.198H61.4004V394.286ZM70.0504 392.91C69.3144 393.955 68.2744 394.478 66.9304 394.478C65.5971 394.478 64.5517 393.955 63.7944 392.91C63.0584 391.854 62.6904 390.446 62.6904 388.686C62.6904 386.915 63.0584 385.512 63.7944 384.478C64.5517 383.422 65.5971 382.894 66.9304 382.894C68.2744 382.894 69.3144 383.422 70.0504 384.478C70.7971 385.512 71.1704 386.915 71.1704 388.686C71.1704 390.456 70.7971 391.864 70.0504 392.91ZM64.6264 392.158C65.1917 392.979 65.9597 393.39 66.9304 393.39C67.9117 393.39 68.6744 392.979 69.2184 392.158C69.7731 391.347 70.0504 390.19 70.0504 388.686C70.0504 387.182 69.7731 386.024 69.2184 385.214C68.6744 384.392 67.9117 383.982 66.9304 383.982C65.9597 383.982 65.1917 384.392 64.6264 385.214C64.0824 386.035 63.8104 387.192 63.8104 388.686C63.8104 390.179 64.0824 391.336 64.6264 392.158ZM80.1285 392.91C79.3925 393.955 78.3525 394.478 77.0085 394.478C75.6752 394.478 74.6299 393.955 73.8725 392.91C73.1365 391.854 72.7685 390.446 72.7685 388.686C72.7685 386.915 73.1365 385.512 73.8725 384.478C74.6299 383.422 75.6752 382.894 77.0085 382.894C78.3525 382.894 79.3925 383.422 80.1285 384.478C80.8752 385.512 81.2485 386.915 81.2485 388.686C81.2485 390.456 80.8752 391.864 80.1285 392.91ZM74.7045 392.158C75.2699 392.979 76.0379 393.39 77.0085 393.39C77.9899 393.39 78.7525 392.979 79.2965 392.158C79.8512 391.347 80.1285 390.19 80.1285 388.686C80.1285 387.182 79.8512 386.024 79.2965 385.214C78.7525 384.392 77.9899 383.982 77.0085 383.982C76.0379 383.982 75.2699 384.392 74.7045 385.214C74.1605 386.035 73.8885 387.192 73.8885 388.686C73.8885 390.179 74.1605 391.336 74.7045 392.158ZM84.2823 393.566C84.2823 393.811 84.197 394.019 84.0263 394.19C83.8556 394.36 83.6476 394.446 83.4023 394.446C83.157 394.446 82.949 394.36 82.7783 394.19C82.6076 394.019 82.5223 393.811 82.5223 393.566C82.5223 393.32 82.6076 393.112 82.7783 392.942C82.949 392.771 83.157 392.686 83.4023 392.686C83.6476 392.686 83.8556 392.771 84.0263 392.942C84.197 393.112 84.2823 393.32 84.2823 393.566ZM92.9254 392.91C92.1894 393.955 91.1494 394.478 89.8054 394.478C88.4721 394.478 87.4267 393.955 86.6694 392.91C85.9334 391.854 85.5654 390.446 85.5654 388.686C85.5654 386.915 85.9334 385.512 86.6694 384.478C87.4267 383.422 88.4721 382.894 89.8054 382.894C91.1494 382.894 92.1894 383.422 92.9254 384.478C93.6721 385.512 94.0454 386.915 94.0454 388.686C94.0454 390.456 93.6721 391.864 92.9254 392.91ZM87.5014 392.158C88.0667 392.979 88.8347 393.39 89.8054 393.39C90.7867 393.39 91.5494 392.979 92.0934 392.158C92.6481 391.347 92.9254 390.19 92.9254 388.686C92.9254 387.182 92.6481 386.024 92.0934 385.214C91.5494 384.392 90.7867 383.982 89.8054 383.982C88.8347 383.982 88.0667 384.392 87.5014 385.214C86.9574 386.035 86.6854 387.192 86.6854 388.686C86.6854 390.179 86.9574 391.336 87.5014 392.158ZM103.004 392.91C102.268 393.955 101.228 394.478 99.8835 394.478C98.5502 394.478 97.5049 393.955 96.7475 392.91C96.0115 391.854 95.6435 390.446 95.6435 388.686C95.6435 386.915 96.0115 385.512 96.7475 384.478C97.5049 383.422 98.5502 382.894 99.8835 382.894C101.228 382.894 102.268 383.422 103.004 384.478C103.75 385.512 104.124 386.915 104.124 388.686C104.124 390.456 103.75 391.864 103.004 392.91ZM97.5795 392.158C98.1449 392.979 98.9129 393.39 99.8835 393.39C100.865 393.39 101.628 392.979 102.172 392.158C102.726 391.347 103.004 390.19 103.004 388.686C103.004 387.182 102.726 386.024 102.172 385.214C101.628 384.392 100.865 383.982 99.8835 383.982C98.9129 383.982 98.1449 384.392 97.5795 385.214C97.0355 386.035 96.7635 387.192 96.7635 388.686C96.7635 390.179 97.0355 391.336 97.5795 392.158Z" fill="#86909C"/>
<path d="M118.285 390.286H983.59" stroke="#E5E6EB" stroke-width="1.67047" stroke-dasharray="6.68 6.68"/>
<path d="M103.004 485.53C102.268 486.575 101.228 487.098 99.8835 487.098C98.5502 487.098 97.5049 486.575 96.7475 485.53C96.0115 484.474 95.6435 483.066 95.6435 481.306C95.6435 479.535 96.0115 478.132 96.7475 477.098C97.5049 476.042 98.5502 475.514 99.8835 475.514C101.228 475.514 102.268 476.042 103.004 477.098C103.75 478.132 104.124 479.535 104.124 481.306C104.124 483.076 103.75 484.484 103.004 485.53ZM97.5795 484.778C98.1449 485.599 98.9129 486.01 99.8835 486.01C100.865 486.01 101.628 485.599 102.172 484.778C102.726 483.967 103.004 482.81 103.004 481.306C103.004 479.802 102.726 478.644 102.172 477.834C101.628 477.012 100.865 476.602 99.8835 476.602C98.9129 476.602 98.1449 477.012 97.5795 477.834C97.0355 478.655 96.7635 479.812 96.7635 481.306C96.7635 482.799 97.0355 483.956 97.5795 484.778Z" fill="#86909C"/>
<path d="M118.285 482.906H983.59" stroke="#C9CDD4" stroke-width="1.67047"/>
<rect x="141.672" y="254.05" width="25.3355" height="228.855" fill="#0F49A0"/>
<rect x="213.781" y="249.039" width="25.3355" height="233.866" fill="#0F49A0"/>
<rect x="285.89" y="40.9053" width="25.3355" height="442" fill="#0F49A0"/>
<rect x="357.998" y="269.085" width="25.3355" height="213.821" fill="#0F49A0"/>
<rect x="430.107" y="217.3" width="25.3355" height="265.605" fill="#0F49A0"/>
<rect x="502.216" y="280.778" width="25.3355" height="202.127" fill="#0F49A0"/>
<rect x="574.325" y="203.936" width="25.3355" height="278.969" fill="#0F49A0"/>
<rect x="646.433" y="218.971" width="25.3355" height="263.935" fill="#0F49A0"/>
<rect x="718.542" y="192.243" width="25.3355" height="290.662" fill="#0F49A0"/>
<rect x="790.651" y="299.153" width="25.3355" height="183.752" fill="#0F49A0"/>
<rect x="862.76" y="207.277" width="25.3355" height="275.628" fill="#0F49A0"/>
<rect x="934.868" y="222.312" width="25.3355" height="260.594" fill="#0F49A0"/>
<path d="M144.173 517.971C143.373 517.971 142.669 517.806 142.061 517.475C141.453 517.145 141.021 516.67 140.765 516.051L141.709 515.491C142.061 516.419 142.882 516.883 144.173 516.883C144.973 516.883 145.597 516.691 146.045 516.307C146.503 515.923 146.733 515.358 146.733 514.611V506.579H147.853V514.611C147.853 515.699 147.501 516.531 146.797 517.107C146.103 517.683 145.229 517.971 144.173 517.971ZM156.89 511.347V509.779H157.946V517.779H156.89V516.211C156.154 517.385 155.077 517.971 153.658 517.971C152.517 517.971 151.541 517.566 150.73 516.755C149.93 515.945 149.53 514.953 149.53 513.779C149.53 512.606 149.93 511.614 150.73 510.803C151.541 509.993 152.517 509.587 153.658 509.587C155.077 509.587 156.154 510.174 156.89 511.347ZM151.498 516.035C152.106 516.643 152.853 516.947 153.738 516.947C154.624 516.947 155.37 516.643 155.978 516.035C156.586 515.406 156.89 514.654 156.89 513.779C156.89 512.894 156.586 512.147 155.978 511.539C155.37 510.921 154.624 510.611 153.738 510.611C152.853 510.611 152.106 510.921 151.498 511.539C150.89 512.147 150.586 512.894 150.586 513.779C150.586 514.654 150.89 515.406 151.498 516.035ZM163.926 509.587C164.886 509.587 165.649 509.886 166.214 510.483C166.779 511.07 167.062 511.865 167.062 512.867V517.779H166.006V512.867C166.006 512.153 165.814 511.598 165.43 511.203C165.057 510.809 164.523 510.611 163.83 510.611C163.03 510.611 162.395 510.862 161.926 511.363C161.467 511.865 161.238 512.606 161.238 513.587V517.779H160.182V509.779H161.238V511.027C161.835 510.067 162.731 509.587 163.926 509.587Z" fill="#86909C"/>
<path d="M219.888 506.579V507.635H214.688V511.763H219.648V512.819H214.688V517.779H213.568V506.579H219.888ZM225.338 509.587C226.533 509.587 227.488 510.009 228.202 510.851C228.938 511.683 229.306 512.67 229.306 513.811C229.306 513.865 229.296 514.03 229.274 514.307H222.25C222.357 515.107 222.698 515.747 223.274 516.227C223.85 516.707 224.57 516.947 225.434 516.947C226.65 516.947 227.509 516.494 228.01 515.587L228.938 516.131C228.586 516.707 228.101 517.161 227.482 517.491C226.874 517.811 226.186 517.971 225.418 517.971C224.16 517.971 223.136 517.577 222.346 516.787C221.557 515.998 221.162 514.995 221.162 513.779C221.162 512.574 221.552 511.577 222.33 510.787C223.109 509.987 224.112 509.587 225.338 509.587ZM225.338 510.611C224.506 510.611 223.808 510.857 223.242 511.347C222.688 511.838 222.357 512.483 222.25 513.283H228.218C228.101 512.43 227.776 511.774 227.242 511.315C226.688 510.846 226.053 510.611 225.338 510.611ZM235.274 509.587C236.416 509.587 237.386 509.993 238.186 510.803C238.997 511.614 239.402 512.606 239.402 513.779C239.402 514.953 238.997 515.945 238.186 516.755C237.386 517.566 236.416 517.971 235.274 517.971C233.856 517.971 232.778 517.385 232.042 516.211V517.779H230.986V506.579H232.042V511.347C232.778 510.174 233.856 509.587 235.274 509.587ZM232.954 516.035C233.562 516.643 234.309 516.947 235.194 516.947C236.08 516.947 236.826 516.643 237.434 516.035C238.042 515.406 238.346 514.654 238.346 513.779C238.346 512.894 238.042 512.147 237.434 511.539C236.826 510.921 236.08 510.611 235.194 510.611C234.309 510.611 233.562 510.921 232.954 511.539C232.346 512.147 232.042 512.894 232.042 513.779C232.042 514.654 232.346 515.406 232.954 516.035Z" fill="#86909C"/>
<path d="M294.4 506.579H295.792V517.779H294.672V508.275L290.752 514.835H290.592L286.672 508.275V517.779H285.552V506.579H286.944L290.672 512.819L294.4 506.579ZM305.069 511.347V509.779H306.125V517.779H305.069V516.211C304.333 517.385 303.255 517.971 301.837 517.971C300.695 517.971 299.719 517.566 298.909 516.755C298.109 515.945 297.709 514.953 297.709 513.779C297.709 512.606 298.109 511.614 298.909 510.803C299.719 509.993 300.695 509.587 301.837 509.587C303.255 509.587 304.333 510.174 305.069 511.347ZM299.677 516.035C300.285 516.643 301.031 516.947 301.917 516.947C302.802 516.947 303.549 516.643 304.157 516.035C304.765 515.406 305.069 514.654 305.069 513.779C305.069 512.894 304.765 512.147 304.157 511.539C303.549 510.921 302.802 510.611 301.917 510.611C301.031 510.611 300.285 510.921 299.677 511.539C299.069 512.147 298.765 512.894 298.765 513.779C298.765 514.654 299.069 515.406 299.677 516.035ZM309.417 509.779V511.107C309.907 510.137 310.75 509.651 311.945 509.651V510.675C311.177 510.675 310.563 510.899 310.105 511.347C309.646 511.785 309.417 512.446 309.417 513.331V517.779H308.361V509.779H309.417Z" fill="#86909C"/>
<path d="M367.66 517.779H366.476L365.436 515.027H360.124L359.084 517.779H357.9L362.204 506.579H363.356L367.66 517.779ZM362.78 507.971L360.524 513.971H365.036L362.78 507.971ZM373.226 509.587C374.367 509.587 375.338 509.993 376.138 510.803C376.949 511.614 377.354 512.606 377.354 513.779C377.354 514.953 376.949 515.945 376.138 516.755C375.338 517.566 374.367 517.971 373.226 517.971C371.807 517.971 370.73 517.385 369.994 516.211V520.979H368.938V509.779H369.994V511.347C370.73 510.174 371.807 509.587 373.226 509.587ZM370.906 516.035C371.514 516.643 372.261 516.947 373.146 516.947C374.031 516.947 374.778 516.643 375.386 516.035C375.994 515.406 376.298 514.654 376.298 513.779C376.298 512.894 375.994 512.147 375.386 511.539C374.778 510.921 374.031 510.611 373.146 510.611C372.261 510.611 371.514 510.921 370.906 511.539C370.298 512.147 369.994 512.894 369.994 513.779C369.994 514.654 370.298 515.406 370.906 516.035ZM380.166 509.779V511.107C380.657 510.137 381.499 509.651 382.694 509.651V510.675C381.926 510.675 381.313 510.899 380.854 511.347C380.395 511.785 380.166 512.446 380.166 513.331V517.779H379.11V509.779H380.166Z" fill="#86909C"/>
<path d="M441.133 506.579H442.525V517.779H441.405V508.275L437.485 514.835H437.325L433.405 508.275V517.779H432.285V506.579H433.677L437.405 512.819L441.133 506.579ZM451.802 511.347V509.779H452.858V517.779H451.802V516.211C451.066 517.385 449.989 517.971 448.57 517.971C447.429 517.971 446.453 517.566 445.642 516.755C444.842 515.945 444.442 514.953 444.442 513.779C444.442 512.606 444.842 511.614 445.642 510.803C446.453 509.993 447.429 509.587 448.57 509.587C449.989 509.587 451.066 510.174 451.802 511.347ZM446.41 516.035C447.018 516.643 447.765 516.947 448.65 516.947C449.535 516.947 450.282 516.643 450.89 516.035C451.498 515.406 451.802 514.654 451.802 513.779C451.802 512.894 451.498 512.147 450.89 511.539C450.282 510.921 449.535 510.611 448.65 510.611C447.765 510.611 447.018 510.921 446.41 511.539C445.802 512.147 445.498 512.894 445.498 513.779C445.498 514.654 445.802 515.406 446.41 516.035Z" fill="#86909C"/>
<path d="M505.302 517.971C504.502 517.971 503.798 517.806 503.19 517.475C502.582 517.145 502.15 516.67 501.894 516.051L502.838 515.491C503.19 516.419 504.012 516.883 505.302 516.883C506.102 516.883 506.726 516.691 507.174 516.307C507.633 515.923 507.862 515.358 507.862 514.611V506.579H508.982V514.611C508.982 515.699 508.63 516.531 507.926 517.107C507.233 517.683 506.358 517.971 505.302 517.971ZM516.85 513.971V509.779H517.906V517.779H516.85V516.531C516.253 517.491 515.357 517.971 514.162 517.971C513.202 517.971 512.439 517.678 511.874 517.091C511.309 516.494 511.026 515.694 511.026 514.691V509.779H512.082V514.691C512.082 515.406 512.269 515.961 512.642 516.355C513.026 516.75 513.565 516.947 514.258 516.947C515.058 516.947 515.687 516.697 516.146 516.195C516.615 515.694 516.85 514.953 516.85 513.971ZM523.884 509.587C524.844 509.587 525.607 509.886 526.172 510.483C526.737 511.07 527.02 511.865 527.02 512.867V517.779H525.964V512.867C525.964 512.153 525.772 511.598 525.388 511.203C525.015 510.809 524.481 510.611 523.788 510.611C522.988 510.611 522.353 510.862 521.884 511.363C521.425 511.865 521.196 512.606 521.196 513.587V517.779H520.14V509.779H521.196V511.027C521.793 510.067 522.689 509.587 523.884 509.587Z" fill="#86909C"/>
<path d="M580.224 517.971C579.424 517.971 578.72 517.806 578.112 517.475C577.504 517.145 577.072 516.67 576.816 516.051L577.76 515.491C578.112 516.419 578.933 516.883 580.224 516.883C581.024 516.883 581.648 516.691 582.096 516.307C582.554 515.923 582.784 515.358 582.784 514.611V506.579H583.904V514.611C583.904 515.699 583.552 516.531 582.848 517.107C582.154 517.683 581.28 517.971 580.224 517.971ZM591.771 513.971V509.779H592.827V517.779H591.771V516.531C591.174 517.491 590.278 517.971 589.083 517.971C588.123 517.971 587.361 517.678 586.795 517.091C586.23 516.494 585.947 515.694 585.947 514.691V509.779H587.003V514.691C587.003 515.406 587.19 515.961 587.563 516.355C587.947 516.75 588.486 516.947 589.179 516.947C589.979 516.947 590.609 516.697 591.067 516.195C591.537 515.694 591.771 514.953 591.771 513.971ZM596.117 517.779H595.061V506.099H596.117V517.779Z" fill="#86909C"/>
<path d="M654.189 517.779H653.005L651.965 515.027H646.653L645.613 517.779H644.429L648.733 506.579H649.885L654.189 517.779ZM649.309 507.971L647.053 513.971H651.565L649.309 507.971ZM661.021 513.971V509.779H662.077V517.779H661.021V516.531C660.423 517.491 659.527 517.971 658.333 517.971C657.373 517.971 656.61 517.678 656.045 517.091C655.479 516.494 655.197 515.694 655.197 514.691V509.779H656.253V514.691C656.253 515.406 656.439 515.961 656.813 516.355C657.197 516.75 657.735 516.947 658.429 516.947C659.229 516.947 659.858 516.697 660.317 516.195C660.786 515.694 661.021 514.953 661.021 513.971ZM671.191 511.347V509.779H672.247V517.459C672.247 518.611 671.852 519.518 671.063 520.179C670.273 520.841 669.329 521.171 668.231 521.171C666.364 521.171 665.1 520.521 664.439 519.219L665.367 518.691C665.847 519.662 666.801 520.147 668.231 520.147C669.148 520.147 669.868 519.907 670.391 519.427C670.924 518.947 671.191 518.291 671.191 517.459V516.211C670.455 517.385 669.377 517.971 667.959 517.971C666.817 517.971 665.841 517.566 665.031 516.755C664.231 515.945 663.831 514.953 663.831 513.779C663.831 512.606 664.231 511.614 665.031 510.803C665.841 509.993 666.817 509.587 667.959 509.587C669.377 509.587 670.455 510.174 671.191 511.347ZM665.799 516.035C666.407 516.643 667.153 516.947 668.039 516.947C668.924 516.947 669.671 516.643 670.279 516.035C670.887 515.406 671.191 514.654 671.191 513.779C671.191 512.894 670.887 512.147 670.279 511.539C669.671 510.921 668.924 510.611 668.039 510.611C667.153 510.611 666.407 510.921 665.799 511.539C665.191 512.147 664.887 512.894 664.887 513.779C664.887 514.654 665.191 515.406 665.799 516.035Z" fill="#86909C"/>
<path d="M721.279 517.971C720.255 517.971 719.375 517.731 718.639 517.251C717.914 516.761 717.407 516.089 717.119 515.235L718.079 514.675C718.282 515.379 718.655 515.923 719.199 516.307C719.754 516.691 720.452 516.883 721.295 516.883C722.116 516.883 722.762 516.702 723.231 516.339C723.7 515.977 723.935 515.486 723.935 514.867C723.935 514.281 723.722 513.838 723.295 513.539C722.879 513.241 722.175 512.931 721.183 512.611C719.999 512.217 719.231 511.907 718.879 511.683C718.026 511.171 717.599 510.43 717.599 509.459C717.599 508.51 717.93 507.763 718.591 507.219C719.242 506.665 720.058 506.387 721.039 506.387C721.882 506.387 722.628 506.611 723.279 507.059C723.93 507.497 724.415 508.078 724.735 508.803L723.791 509.331C723.279 508.094 722.362 507.475 721.039 507.475C720.335 507.475 719.77 507.651 719.343 508.003C718.927 508.345 718.719 508.814 718.719 509.411C718.719 509.977 718.911 510.393 719.295 510.659C719.69 510.937 720.324 511.219 721.199 511.507L722.063 511.811C722.244 511.865 722.5 511.961 722.831 512.099C723.194 512.238 723.444 512.355 723.583 512.451C724.148 512.793 724.506 513.107 724.655 513.395C724.922 513.822 725.055 514.302 725.055 514.835C725.055 515.785 724.708 516.547 724.015 517.123C723.322 517.689 722.41 517.971 721.279 517.971ZM730.67 509.587C731.865 509.587 732.819 510.009 733.534 510.851C734.27 511.683 734.638 512.67 734.638 513.811C734.638 513.865 734.627 514.03 734.606 514.307H727.582C727.689 515.107 728.03 515.747 728.606 516.227C729.182 516.707 729.902 516.947 730.766 516.947C731.982 516.947 732.841 516.494 733.342 515.587L734.27 516.131C733.918 516.707 733.433 517.161 732.814 517.491C732.206 517.811 731.518 517.971 730.75 517.971C729.491 517.971 728.467 517.577 727.678 516.787C726.889 515.998 726.494 514.995 726.494 513.779C726.494 512.574 726.883 511.577 727.662 510.787C728.441 509.987 729.443 509.587 730.67 509.587ZM730.67 510.611C729.838 510.611 729.139 510.857 728.574 511.347C728.019 511.838 727.689 512.483 727.582 513.283H733.55C733.433 512.43 733.107 511.774 732.574 511.315C732.019 510.846 731.385 510.611 730.67 510.611ZM740.606 509.587C741.747 509.587 742.718 509.993 743.518 510.803C744.328 511.614 744.734 512.606 744.734 513.779C744.734 514.953 744.328 515.945 743.518 516.755C742.718 517.566 741.747 517.971 740.606 517.971C739.187 517.971 738.11 517.385 737.374 516.211V520.979H736.318V509.779H737.374V511.347C738.11 510.174 739.187 509.587 740.606 509.587ZM738.286 516.035C738.894 516.643 739.64 516.947 740.526 516.947C741.411 516.947 742.158 516.643 742.766 516.035C743.374 515.406 743.678 514.654 743.678 513.779C743.678 512.894 743.374 512.147 742.766 511.539C742.158 510.921 741.411 510.611 740.526 510.611C739.64 510.611 738.894 510.921 738.286 511.539C737.678 512.147 737.374 512.894 737.374 513.779C737.374 514.654 737.678 515.406 738.286 516.035Z" fill="#86909C"/>
<path d="M799.733 516.291C798.613 517.411 797.243 517.971 795.621 517.971C794 517.971 792.629 517.411 791.509 516.291C790.389 515.15 789.829 513.779 789.829 512.179C789.829 510.569 790.389 509.203 791.509 508.083C792.629 506.953 794 506.387 795.621 506.387C797.243 506.387 798.613 506.953 799.733 508.083C800.853 509.203 801.413 510.569 801.413 512.179C801.413 513.779 800.853 515.15 799.733 516.291ZM790.949 512.179C790.949 513.502 791.397 514.617 792.293 515.523C793.189 516.43 794.299 516.883 795.621 516.883C796.944 516.883 798.053 516.43 798.949 515.523C799.845 514.617 800.293 513.502 800.293 512.179C800.293 510.867 799.845 509.758 798.949 508.851C798.053 507.934 796.944 507.475 795.621 507.475C794.299 507.475 793.189 507.934 792.293 508.851C791.397 509.758 790.949 510.867 790.949 512.179ZM806.897 517.971C805.691 517.971 804.689 517.571 803.889 516.771C803.089 515.95 802.689 514.953 802.689 513.779C802.689 512.595 803.089 511.603 803.889 510.803C804.689 509.993 805.691 509.587 806.897 509.587C807.686 509.587 808.395 509.779 809.025 510.163C809.654 510.537 810.113 511.043 810.401 511.683L809.537 512.179C809.323 511.699 808.977 511.321 808.497 511.043C808.027 510.755 807.494 510.611 806.897 510.611C806.011 510.611 805.265 510.921 804.657 511.539C804.049 512.147 803.745 512.894 803.745 513.779C803.745 514.654 804.049 515.406 804.657 516.035C805.265 516.643 806.011 516.947 806.897 516.947C807.483 516.947 808.011 516.809 808.481 516.531C808.961 516.254 809.334 515.87 809.601 515.379L810.481 515.891C810.15 516.531 809.665 517.038 809.025 517.411C808.385 517.785 807.675 517.971 806.897 517.971ZM816.237 509.779V510.803H813.933V515.651C813.933 516.089 814.018 516.403 814.189 516.595C814.359 516.777 814.615 516.873 814.957 516.883C815.298 516.883 815.725 516.873 816.237 516.851V517.779C815.095 517.95 814.247 517.87 813.693 517.539C813.149 517.198 812.877 516.569 812.877 515.651V510.803H811.197V509.779H812.877V507.859L813.933 507.539V509.779H816.237Z" fill="#86909C"/>
<path d="M869.411 515.699V506.579H870.531V517.779H869.571L863.331 508.659V517.779H862.211V506.579H863.171L869.411 515.699ZM879.63 516.771C878.809 517.571 877.817 517.971 876.654 517.971C875.47 517.971 874.473 517.571 873.662 516.771C872.851 515.961 872.446 514.963 872.446 513.779C872.446 512.595 872.851 511.603 873.662 510.803C874.473 509.993 875.47 509.587 876.654 509.587C877.827 509.587 878.819 509.993 879.63 510.803C880.451 511.603 880.862 512.595 880.862 513.779C880.862 514.953 880.451 515.95 879.63 516.771ZM874.414 516.035C875.022 516.643 875.769 516.947 876.654 516.947C877.539 516.947 878.286 516.643 878.894 516.035C879.502 515.406 879.806 514.654 879.806 513.779C879.806 512.894 879.502 512.147 878.894 511.539C878.286 510.921 877.539 510.611 876.654 510.611C875.769 510.611 875.022 510.921 874.414 511.539C873.806 512.147 873.502 512.894 873.502 513.779C873.502 514.654 873.806 515.406 874.414 516.035ZM885.277 516.675L888.077 509.779H889.197L885.917 517.779H884.637L881.357 509.779H882.477L885.277 516.675Z" fill="#86909C"/>
<path d="M933.687 506.579H938.007C939.532 506.579 940.791 507.123 941.783 508.211C942.786 509.278 943.287 510.601 943.287 512.179C943.287 513.758 942.786 515.086 941.783 516.163C940.791 517.241 939.532 517.779 938.007 517.779H933.687V506.579ZM934.807 516.723H938.007C939.234 516.723 940.236 516.286 941.015 515.411C941.804 514.526 942.199 513.449 942.199 512.179C942.199 510.91 941.804 509.833 941.015 508.947C940.236 508.073 939.234 507.635 938.007 507.635H934.807V516.723ZM948.739 509.587C949.933 509.587 950.888 510.009 951.603 510.851C952.339 511.683 952.707 512.67 952.707 513.811C952.707 513.865 952.696 514.03 952.675 514.307H945.651C945.757 515.107 946.099 515.747 946.675 516.227C947.251 516.707 947.971 516.947 948.835 516.947C950.051 516.947 950.909 516.494 951.411 515.587L952.339 516.131C951.987 516.707 951.501 517.161 950.883 517.491C950.275 517.811 949.587 517.971 948.819 517.971C947.56 517.971 946.536 517.577 945.747 516.787C944.957 515.998 944.563 514.995 944.563 513.779C944.563 512.574 944.952 511.577 945.731 510.787C946.509 509.987 947.512 509.587 948.739 509.587ZM948.739 510.611C947.907 510.611 947.208 510.857 946.643 511.347C946.088 511.838 945.757 512.483 945.651 513.283H951.619C951.501 512.43 951.176 511.774 950.643 511.315C950.088 510.846 949.453 510.611 948.739 510.611ZM958.114 517.971C956.909 517.971 955.906 517.571 955.106 516.771C954.306 515.95 953.906 514.953 953.906 513.779C953.906 512.595 954.306 511.603 955.106 510.803C955.906 509.993 956.909 509.587 958.114 509.587C958.904 509.587 959.613 509.779 960.242 510.163C960.872 510.537 961.33 511.043 961.618 511.683L960.754 512.179C960.541 511.699 960.194 511.321 959.714 511.043C959.245 510.755 958.712 510.611 958.114 510.611C957.229 510.611 956.482 510.921 955.874 511.539C955.266 512.147 954.962 512.894 954.962 513.779C954.962 514.654 955.266 515.406 955.874 516.035C956.482 516.643 957.229 516.947 958.114 516.947C958.701 516.947 959.229 516.809 959.698 516.531C960.178 516.254 960.552 515.87 960.818 515.379L961.698 515.891C961.368 516.531 960.882 517.038 960.242 517.411C959.602 517.785 958.893 517.971 958.114 517.971Z" fill="#86909C"/>
</svg>
