<svg width="21" height="22" viewBox="0 0 21 22" fill="none" xmlns="http://www.w3.org/2000/svg">
<path d="M6.25 16.6462H14.25M9.2677 2.41018L2.48539 7.6853C2.03202 8.03792 1.80534 8.21423 1.64203 8.43504C1.49737 8.63062 1.3896 8.85096 1.32403 9.08523C1.25 9.3497 1.25 9.63688 1.25 10.2112V17.4462C1.25 18.5663 1.25 19.1263 1.46799 19.5541C1.65973 19.9305 1.96569 20.2364 2.34202 20.4282C2.76984 20.6462 3.32989 20.6462 4.45 20.6462H16.05C17.1701 20.6462 17.7302 20.6462 18.158 20.4282C18.5343 20.2364 18.8403 19.9305 19.032 19.5541C19.25 19.1263 19.25 18.5663 19.25 17.4462V10.2112C19.25 9.63688 19.25 9.3497 19.176 9.08523C19.1104 8.85096 19.0026 8.63062 18.858 8.43504C18.6947 8.21423 18.468 8.03792 18.0146 7.68531L11.2323 2.41018C10.881 2.13693 10.7053 2.0003 10.5113 1.94778C10.3402 1.90144 10.1598 1.90144 9.98865 1.94778C9.79468 2.0003 9.61902 2.13693 9.2677 2.41018Z" stroke="#5D5D5D" stroke-width="2" stroke-linecap="round" stroke-linejoin="round"/>
</svg>
