<svg width="23" height="23" viewBox="0 0 23 23" fill="none" xmlns="http://www.w3.org/2000/svg">
<path d="M10.25 4.14615H17.55C18.6701 4.14615 19.2302 4.14615 19.658 4.36414C20.0343 4.55588 20.3403 4.86184 20.532 5.23817C20.75 5.66599 20.75 6.22604 20.75 7.34615V8.64615C20.75 9.57803 20.75 10.044 20.5978 10.4115C20.3948 10.9016 20.0054 11.2909 19.5154 11.4939C19.1478 11.6461 18.6819 11.6461 17.75 11.6461M12.25 19.1461H4.95C3.8299 19.1461 3.26984 19.1461 2.84202 18.9282C2.46569 18.7364 2.15973 18.4305 1.96799 18.0541C1.75 17.6263 1.75 17.0663 1.75 15.9461V14.6461C1.75 13.7143 1.75 13.2483 1.90224 12.8808C2.10523 12.3907 2.49458 12.0014 2.98463 11.7984C3.35218 11.6461 3.81812 11.6461 4.75 11.6461M9.55 14.1461H12.95C13.23 14.1461 13.37 14.1461 13.477 14.0917C13.5711 14.0437 13.6476 13.9672 13.6955 13.8731C13.75 13.7662 13.75 13.6262 13.75 13.3461V9.94615C13.75 9.66612 13.75 9.52611 13.6955 9.41915C13.6476 9.32507 13.5711 9.24858 13.477 9.20065C13.37 9.14615 13.23 9.14615 12.95 9.14615H9.55C9.26997 9.14615 9.12996 9.14615 9.023 9.20065C8.92892 9.24858 8.85243 9.32507 8.8045 9.41915C8.75 9.52611 8.75 9.66612 8.75 9.94615V13.3461C8.75 13.6262 8.75 13.7662 8.8045 13.8731C8.85243 13.9672 8.92892 14.0437 9.023 14.0917C9.12996 14.1461 9.26997 14.1461 9.55 14.1461ZM17.05 21.6461H20.45C20.73 21.6461 20.87 21.6461 20.977 21.5917C21.0711 21.5437 21.1476 21.4672 21.1955 21.3731C21.25 21.2662 21.25 21.1262 21.25 20.8461V17.4461C21.25 17.1661 21.25 17.0261 21.1955 16.9192C21.1476 16.8251 21.0711 16.7486 20.977 16.7006C20.87 16.6461 20.73 16.6461 20.45 16.6461H17.05C16.77 16.6461 16.63 16.6461 16.523 16.7006C16.4289 16.7486 16.3524 16.8251 16.3045 16.9192C16.25 17.0261 16.25 17.1661 16.25 17.4461V20.8461C16.25 21.1262 16.25 21.2662 16.3045 21.3731C16.3524 21.4672 16.4289 21.5437 16.523 21.5917C16.63 21.6461 16.77 21.6461 17.05 21.6461ZM2.05 6.64615H5.45C5.73003 6.64615 5.87004 6.64615 5.977 6.59165C6.07108 6.54372 6.14757 6.46723 6.1955 6.37314C6.25 6.26619 6.25 6.12617 6.25 5.84615V2.44615C6.25 2.16612 6.25 2.02611 6.1955 1.91915C6.14757 1.82507 6.07108 1.74858 5.977 1.70065C5.87004 1.64615 5.73003 1.64615 5.45 1.64615H2.05C1.76997 1.64615 1.62996 1.64615 1.523 1.70065C1.42892 1.74858 1.35243 1.82507 1.3045 1.91915C1.25 2.02611 1.25 2.16612 1.25 2.44615V5.84615C1.25 6.12617 1.25 6.26619 1.3045 6.37314C1.35243 6.46723 1.42892 6.54372 1.523 6.59165C1.62996 6.64615 1.76997 6.64615 2.05 6.64615Z" stroke="#5D5D5D" stroke-width="2" stroke-linecap="round" stroke-linejoin="round"/>
</svg>
