<svg width="23" height="19" viewBox="0 0 23 19" fill="none" xmlns="http://www.w3.org/2000/svg">
<path d="M11.25 17.6461H4.45C3.32989 17.6461 2.76984 17.6461 2.34202 17.4282C1.96569 17.2364 1.65973 16.9305 1.46799 16.5541C1.25 16.1263 1.25 15.5663 1.25 14.4461V4.84615C1.25 3.72604 1.25 3.16599 1.46799 2.73817C1.65973 2.36184 1.96569 2.05588 2.34202 1.86414C2.76984 1.64615 3.32989 1.64615 4.45 1.64615H4.85C7.09021 1.64615 8.21031 1.64615 9.06596 2.08212C9.81861 2.46562 10.4305 3.07754 10.814 3.83019C11.25 4.68583 11.25 5.80594 11.25 8.04615M11.25 17.6461V8.04615M11.25 17.6461H18.05C19.1701 17.6461 19.7302 17.6461 20.158 17.4282C20.5343 17.2364 20.8403 16.9305 21.032 16.5541C21.25 16.1263 21.25 15.5663 21.25 14.4461V4.84615C21.25 3.72604 21.25 3.16599 21.032 2.73817C20.8403 2.36184 20.5343 2.05588 20.158 1.86414C19.7302 1.64615 19.1701 1.64615 18.05 1.64615H17.65C15.4098 1.64615 14.2897 1.64615 13.434 2.08212C12.6814 2.46562 12.0695 3.07754 11.686 3.83019C11.25 4.68583 11.25 5.80594 11.25 8.04615" stroke="#5D5D5D" stroke-width="2" stroke-linecap="round" stroke-linejoin="round"/>
</svg>
