<svg width="23" height="23" viewBox="0 0 23 23" fill="none" xmlns="http://www.w3.org/2000/svg">
<path d="M9.25 17.3047V19.6461C9.25 20.7507 10.1454 21.6461 11.25 21.6461C12.3546 21.6461 13.25 20.7507 13.25 19.6461V17.3047M11.25 1.64615V2.64615M2.25 11.6461H1.25M4.75 5.14615L4.1499 4.54605M17.75 5.14615L18.3502 4.54605M21.25 11.6461H20.25M17.25 11.6461C17.25 14.9599 14.5637 17.6461 11.25 17.6461C7.93629 17.6461 5.25 14.9599 5.25 11.6461C5.25 8.33244 7.93629 5.64615 11.25 5.64615C14.5637 5.64615 17.25 8.33244 17.25 11.6461Z" stroke="#5D5D5D" stroke-width="2" stroke-linecap="round" stroke-linejoin="round"/>
</svg>
