<svg width="23" height="22" viewBox="0 0 23 22" fill="none" xmlns="http://www.w3.org/2000/svg">
<path d="M11.25 14C12.9069 14 14.25 12.6569 14.25 11C14.25 9.34315 12.9069 8 11.25 8C9.59315 8 8.25 9.34315 8.25 11C8.25 12.6569 9.59315 14 11.25 14Z" stroke="#5D5D5D" stroke-width="2" stroke-linecap="round" stroke-linejoin="round"/>
<path d="M17.9773 13.7273C17.8563 14.0015 17.8202 14.3056 17.8736 14.6005C17.9271 14.8954 18.0677 15.1676 18.2773 15.3818L18.3318 15.4364C18.5009 15.6052 18.635 15.8057 18.7265 16.0265C18.818 16.2472 18.8651 16.4838 18.8651 16.7227C18.8651 16.9617 18.818 17.1983 18.7265 17.419C18.635 17.6397 18.5009 17.8402 18.3318 18.0091C18.163 18.1781 17.9624 18.3122 17.7417 18.4037C17.521 18.4952 17.2844 18.5423 17.0455 18.5423C16.8065 18.5423 16.5699 18.4952 16.3492 18.4037C16.1285 18.3122 15.928 18.1781 15.7591 18.0091L15.7045 17.9545C15.4903 17.745 15.2182 17.6044 14.9233 17.5509C14.6284 17.4974 14.3242 17.5335 14.05 17.6545C13.7811 17.7698 13.5518 17.9611 13.3903 18.205C13.2288 18.4489 13.1421 18.7347 13.1409 19.0273V19.1818C13.1409 19.664 12.9494 20.1265 12.6084 20.4675C12.2674 20.8084 11.8049 21 11.3227 21C10.8405 21 10.3781 20.8084 10.0371 20.4675C9.6961 20.1265 9.50455 19.664 9.50455 19.1818V19.1C9.49751 18.7991 9.40011 18.5073 9.22501 18.2625C9.04991 18.0176 8.80521 17.8312 8.52273 17.7273C8.24853 17.6063 7.94437 17.5702 7.64947 17.6236C7.35456 17.6771 7.08244 17.8177 6.86818 18.0273L6.81364 18.0818C6.64478 18.2509 6.44425 18.385 6.22353 18.4765C6.0028 18.568 5.76621 18.6151 5.52727 18.6151C5.28834 18.6151 5.05174 18.568 4.83102 18.4765C4.61029 18.385 4.40977 18.2509 4.24091 18.0818C4.07186 17.913 3.93775 17.7124 3.84626 17.4917C3.75476 17.271 3.70766 17.0344 3.70766 16.7955C3.70766 16.5565 3.75476 16.3199 3.84626 16.0992C3.93775 15.8785 4.07186 15.678 4.24091 15.5091L4.29545 15.4545C4.50503 15.2403 4.64562 14.9682 4.6991 14.6733C4.75257 14.3784 4.71647 14.0742 4.59545 13.8C4.48022 13.5311 4.28887 13.3018 4.04497 13.1403C3.80107 12.9788 3.51526 12.8921 3.22273 12.8909H3.06818C2.58597 12.8909 2.12351 12.6994 1.78253 12.3584C1.44156 12.0174 1.25 11.5549 1.25 11.0727C1.25 10.5905 1.44156 10.1281 1.78253 9.78708C2.12351 9.4461 2.58597 9.25455 3.06818 9.25455H3.15C3.4509 9.24751 3.74273 9.15011 3.98754 8.97501C4.23236 8.79991 4.41883 8.55521 4.52273 8.27273C4.64374 7.99853 4.67984 7.69437 4.62637 7.39947C4.5729 7.10456 4.43231 6.83244 4.22273 6.61818L4.16818 6.56364C3.99913 6.39478 3.86503 6.19425 3.77353 5.97353C3.68203 5.7528 3.63493 5.51621 3.63493 5.27727C3.63493 5.03834 3.68203 4.80174 3.77353 4.58102C3.86503 4.36029 3.99913 4.15977 4.16818 3.99091C4.33704 3.82186 4.53757 3.68775 4.75829 3.59626C4.97901 3.50476 5.21561 3.45766 5.45455 3.45766C5.69348 3.45766 5.93008 3.50476 6.1508 3.59626C6.37152 3.68775 6.57205 3.82186 6.74091 3.99091L6.79545 4.04545C7.00971 4.25503 7.28183 4.39562 7.57674 4.4491C7.87164 4.50257 8.1758 4.46647 8.45 4.34545H8.52273C8.79161 4.23022 9.02093 4.03887 9.18245 3.79497C9.34397 3.55107 9.43065 3.26526 9.43182 2.97273V2.81818C9.43182 2.33597 9.62338 1.87351 9.96435 1.53253C10.3053 1.19156 10.7678 1 11.25 1C11.7322 1 12.1947 1.19156 12.5356 1.53253C12.8766 1.87351 13.0682 2.33597 13.0682 2.81818V2.9C13.0693 3.19253 13.156 3.47834 13.3176 3.72224C13.4791 3.96614 13.7084 4.15749 13.9773 4.27273C14.2515 4.39374 14.5556 4.42984 14.8505 4.37637C15.1454 4.3229 15.4176 4.18231 15.6318 3.97273L15.6864 3.91818C15.8552 3.74913 16.0557 3.61503 16.2765 3.52353C16.4972 3.43203 16.7338 3.38493 16.9727 3.38493C17.2117 3.38493 17.4483 3.43203 17.669 3.52353C17.8897 3.61503 18.0902 3.74913 18.2591 3.91818C18.4281 4.08704 18.5622 4.28757 18.6537 4.50829C18.7452 4.72901 18.7923 4.96561 18.7923 5.20455C18.7923 5.44348 18.7452 5.68008 18.6537 5.9008C18.5622 6.12152 18.4281 6.32205 18.2591 6.49091L18.2045 6.54545C17.995 6.75971 17.8544 7.03183 17.8009 7.32674C17.7474 7.62164 17.7835 7.9258 17.9045 8.2V8.27273C18.0198 8.54161 18.2111 8.77093 18.455 8.93245C18.6989 9.09397 18.9847 9.18065 19.2773 9.18182H19.4318C19.914 9.18182 20.3765 9.37338 20.7175 9.71435C21.0584 10.0553 21.25 10.5178 21.25 11C21.25 11.4822 21.0584 11.9447 20.7175 12.2856C20.3765 12.6266 19.914 12.8182 19.4318 12.8182H19.35C19.0575 12.8193 18.7717 12.906 18.5278 13.0676C18.2839 13.2291 18.0925 13.4584 17.9773 13.7273Z" stroke="#5D5D5D" stroke-width="2" stroke-linecap="round" stroke-linejoin="round"/>
</svg>
