<svg width="21" height="23" viewBox="0 0 21 23" fill="none" xmlns="http://www.w3.org/2000/svg">
<path d="M8 20.3961L9.47297 21.2145C9.75658 21.372 9.89838 21.4508 10.0486 21.4817C10.1815 21.509 10.3185 21.509 10.4515 21.4817C10.6016 21.4508 10.7434 21.372 11.027 21.2145L12.5 20.3961M3.5 17.8961L2.07297 17.1033C1.77346 16.937 1.62368 16.8537 1.51463 16.7354C1.41816 16.6307 1.34515 16.5066 1.30048 16.3715C1.25 16.2187 1.25 16.0473 1.25 15.7047V14.1461M1.25 9.14614V7.58759C1.25 7.24495 1.25 7.07362 1.30048 6.92083C1.34515 6.78565 1.41816 6.66157 1.51463 6.55688C1.62368 6.43854 1.77345 6.35534 2.07297 6.18894L3.5 5.39614M8 2.89614L9.47297 2.07782C9.75658 1.92027 9.89838 1.84149 10.0486 1.8106C10.1815 1.78327 10.3185 1.78327 10.4515 1.8106C10.6016 1.84149 10.7434 1.92027 11.027 2.07782L12.5 2.89614M17 5.39614L18.427 6.18893C18.7266 6.35534 18.8763 6.43854 18.9854 6.55688C19.0818 6.66157 19.1549 6.78565 19.1995 6.92082C19.25 7.07362 19.25 7.24494 19.25 7.58759V9.14614M19.25 14.1461V15.7047C19.25 16.0473 19.25 16.2187 19.1995 16.3715C19.1549 16.5066 19.0818 16.6307 18.9854 16.7354C18.8763 16.8537 18.7266 16.9369 18.427 17.1033L17 17.8961M8 10.3961L10.25 11.6461M10.25 11.6461L12.5 10.3961M10.25 11.6461V14.1461M1.25 6.64614L3.5 7.89614M17 7.89614L19.25 6.64614M10.25 19.1461V21.6461" stroke="#5D5D5D" stroke-width="2" stroke-linecap="round" stroke-linejoin="round"/>
</svg>
