<svg width="19" height="23" viewBox="0 0 19 23" fill="none" xmlns="http://www.w3.org/2000/svg">
<path d="M11.25 1.91568V6.04622C11.25 6.60627 11.25 6.8863 11.359 7.10021C11.4549 7.28837 11.6078 7.44135 11.796 7.53723C12.0099 7.64622 12.2899 7.64622 12.85 7.64622H16.9805M5.25 14.6461V17.6461M13.25 12.6461V17.6461M9.25 10.1461V17.6461M17.25 9.63437V16.8461C17.25 18.5263 17.25 19.3664 16.923 20.0081C16.6354 20.5726 16.1765 21.0315 15.612 21.3192C14.9702 21.6461 14.1302 21.6461 12.45 21.6461H6.05C4.36984 21.6461 3.52976 21.6461 2.88803 21.3192C2.32354 21.0315 1.8646 20.5726 1.57698 20.0081C1.25 19.3664 1.25 18.5263 1.25 16.8461V6.44615C1.25 4.76599 1.25 3.92591 1.57698 3.28418C1.8646 2.71969 2.32354 2.26075 2.88803 1.97313C3.52976 1.64615 4.36984 1.64615 6.05 1.64615H9.26178C9.99555 1.64615 10.3624 1.64615 10.7077 1.72904C11.0138 1.80253 11.3064 1.92374 11.5749 2.08823C11.8776 2.27375 12.137 2.53318 12.6559 3.05204L15.8441 6.24026C16.363 6.75912 16.6224 7.01854 16.8079 7.32129C16.9724 7.58971 17.0936 7.88234 17.1671 8.18845C17.25 8.53372 17.25 8.9006 17.25 9.63437Z" stroke="white" stroke-width="2" stroke-linecap="round" stroke-linejoin="round"/>
</svg>
