<svg width="21" height="23" viewBox="0 0 21 23" fill="none" xmlns="http://www.w3.org/2000/svg">
<path d="M15.25 19.6461H15.05C13.3698 19.6461 12.5298 19.6461 11.888 19.3192C11.3235 19.0315 10.8646 18.5726 10.577 18.0081C10.25 17.3664 10.25 16.5263 10.25 14.8461V8.44615C10.25 6.76599 10.25 5.92591 10.577 5.28418C10.8646 4.71969 11.3235 4.26075 11.888 3.97313C12.5298 3.64615 13.3698 3.64615 15.05 3.64615H15.25M15.25 19.6461C15.25 20.7507 16.1454 21.6461 17.25 21.6461C18.3546 21.6461 19.25 20.7507 19.25 19.6461C19.25 18.5416 18.3546 17.6461 17.25 17.6461C16.1454 17.6461 15.25 18.5416 15.25 19.6461ZM15.25 3.64615C15.25 4.75072 16.1454 5.64615 17.25 5.64615C18.3546 5.64615 19.25 4.75072 19.25 3.64615C19.25 2.54158 18.3546 1.64615 17.25 1.64615C16.1454 1.64615 15.25 2.54158 15.25 3.64615ZM5.25 11.6461L15.25 11.6461M5.25 11.6461C5.25 12.7507 4.35457 13.6461 3.25 13.6461C2.14543 13.6461 1.25 12.7507 1.25 11.6461C1.25 10.5416 2.14543 9.64615 3.25 9.64615C4.35457 9.64615 5.25 10.5416 5.25 11.6461ZM15.25 11.6461C15.25 12.7507 16.1454 13.6461 17.25 13.6461C18.3546 13.6461 19.25 12.7507 19.25 11.6461C19.25 10.5416 18.3546 9.64615 17.25 9.64615C16.1454 9.64615 15.25 10.5416 15.25 11.6461Z" stroke="#5D5D5D" stroke-width="2" stroke-linecap="round" stroke-linejoin="round"/>
</svg>
