<svg width="34" height="29" viewBox="0 0 34 29" fill="none" xmlns="http://www.w3.org/2000/svg">
<path d="M15.9546 26.2051L20.8962 28.6461H33.25L13.8562 19.0543C10.9454 17.6041 7.18846 18.4513 5.49615 20.9354L0.25 28.6461H10.4546L11.4192 27.2246C12.35 25.8748 14.3808 25.4154 15.9546 26.2051Z" fill="url(#paint0_linear_1_2478)"/>
<path d="M11.4024 20.72L27.4116 28.6461H33.2501L13.8562 19.0543C11.1316 17.7046 7.69622 18.3507 5.86853 20.4615C7.59468 19.8154 9.64238 19.8584 11.4024 20.72Z" fill="url(#paint1_linear_1_2478)"/>
<path d="M9.15161 28.6461H10.4547L11.2162 27.5405C10.4039 27.6697 9.6593 28.043 9.15161 28.6461Z" fill="url(#paint2_linear_1_2478)"/>
<path d="M22.8423 23.4913C16.6654 20.4328 13.5515 23.4913 10.4546 28.6461H0.25L5.49615 20.9354C7.18846 18.4513 10.9454 17.6041 13.8562 19.0543L22.8423 23.4913Z" fill="url(#paint3_linear_1_2478)"/>
<path d="M12.1638 18.48C9.60846 17.9774 6.86692 18.9108 5.49615 20.9354L0.25 28.6461H2.95769L8.20385 20.9354C9.10077 19.6287 10.5562 18.7815 12.1638 18.48Z" fill="url(#paint4_linear_1_2478)"/>
<path d="M33.1989 24.1948L26.2943 14.0287L16.7496 -3.05176e-05L11.622 7.53843C9.92965 10.0082 10.9281 13.1671 13.8389 14.603L33.1989 24.1948Z" fill="url(#paint5_linear_1_2478)"/>
<path d="M33.1989 24.1948L26.2943 14.0287L16.7496 -3.05176e-05L11.622 7.53843C9.92965 10.0082 10.9281 13.1671 13.8389 14.603L33.1989 24.1948Z" fill="url(#paint6_linear_1_2478)"/>
<path d="M29.4931 18.7384L13.4669 10.8123C12.3839 10.281 11.5715 9.50563 11.0639 8.62973C10.2685 10.8697 11.3346 13.3682 13.8392 14.6031L33.1992 24.1949L29.4931 18.7384Z" fill="url(#paint7_linear_1_2478)"/>
<path d="M31.6422 21.9118C27.936 16.4554 16.1914 0.818431 11.6222 7.53843L16.7499 -3.05176e-05L31.6422 21.9118Z" fill="url(#paint8_linear_1_2478)"/>
<defs>
<linearGradient id="paint0_linear_1_2478" x1="7.76402" y1="13.987" x2="35.7997" y2="29.1146" gradientUnits="userSpaceOnUse">
<stop offset="0.001" stop-color="#0F49A0"/>
<stop offset="1" stop-color="#6FD7ED"/>
</linearGradient>
<linearGradient id="paint1_linear_1_2478" x1="15.6499" y1="15.0414" x2="40.4687" y2="32.298" gradientUnits="userSpaceOnUse">
<stop offset="0.001" stop-color="#0F49A0"/>
<stop offset="1" stop-color="#6FD7ED"/>
</linearGradient>
<linearGradient id="paint2_linear_1_2478" x1="6.62246" y1="25.552" x2="57.9944" y2="61.2721" gradientUnits="userSpaceOnUse">
<stop offset="0.001" stop-color="#0F49A0"/>
<stop offset="1" stop-color="#6FD7ED"/>
</linearGradient>
<linearGradient id="paint3_linear_1_2478" x1="0.246954" y1="18.3446" x2="22.8415" y2="18.3446" gradientUnits="userSpaceOnUse">
<stop stop-color="#0F49A0"/>
<stop offset="0.999" stop-color="#6FD7ED"/>
</linearGradient>
<linearGradient id="paint4_linear_1_2478" x1="0.246785" y1="18.3449" x2="12.1598" y2="18.3449" gradientUnits="userSpaceOnUse">
<stop offset="0.001" stop-color="#0F49A0"/>
<stop offset="1" stop-color="#3275FF"/>
</linearGradient>
<linearGradient id="paint5_linear_1_2478" x1="39.4137" y1="-2.35935" x2="45.1888" y2="23.6614" gradientUnits="userSpaceOnUse">
<stop offset="0.001" stop-color="#0F49A0"/>
<stop offset="1" stop-color="#6FD7ED"/>
</linearGradient>
<linearGradient id="paint6_linear_1_2478" x1="39.4137" y1="-2.35935" x2="45.1888" y2="23.6614" gradientUnits="userSpaceOnUse">
<stop offset="0.001" stop-color="#0F49A0"/>
<stop offset="1" stop-color="#6FD7ED"/>
</linearGradient>
<linearGradient id="paint7_linear_1_2478" x1="29.1313" y1="7.36801" x2="33.1982" y2="25.6929" gradientUnits="userSpaceOnUse">
<stop stop-color="#0F49A0"/>
<stop offset="0.999" stop-color="#6FD7ED"/>
</linearGradient>
<linearGradient id="paint8_linear_1_2478" x1="11.6202" y1="0.00241083" x2="31.6483" y2="0.00241083" gradientUnits="userSpaceOnUse">
<stop stop-color="#0F49A0"/>
<stop offset="0.999" stop-color="#6FD7ED"/>
</linearGradient>
</defs>
</svg>
