<svg width="14" height="16" viewBox="0 0 14 16" fill="none" xmlns="http://www.w3.org/2000/svg">
<path d="M5.5 13.8333L6.48198 14.3789C6.67105 14.4839 6.76559 14.5364 6.8657 14.557C6.95431 14.5752 7.0457 14.5752 7.1343 14.557C7.23442 14.5364 7.32895 14.4839 7.51802 14.3789L8.5 13.8333M2.5 12.1667L1.54865 11.6381C1.34897 11.5272 1.24912 11.4717 1.17642 11.3928C1.11211 11.323 1.06343 11.2403 1.03366 11.1502C1 11.0483 1 10.9341 1 10.7057V9.66665M1 6.33332V5.29428C1 5.06585 1 4.95164 1.03366 4.84977C1.06343 4.75966 1.11211 4.67694 1.17642 4.60714C1.24912 4.52825 1.34897 4.47278 1.54865 4.36185L2.5 3.83332M5.5 2.16665L6.48198 1.62111C6.67105 1.51607 6.76559 1.46355 6.8657 1.44296C6.95431 1.42473 7.0457 1.42473 7.1343 1.44296C7.23442 1.46355 7.32895 1.51607 7.51802 1.62111L8.5 2.16665M11.5 3.83332L12.4514 4.36185C12.651 4.47278 12.7509 4.52825 12.8236 4.60714C12.8879 4.67693 12.9366 4.75966 12.9663 4.84977C13 4.95164 13 5.06585 13 5.29428V6.33332M13 9.66665V10.7057C13 10.9341 13 11.0483 12.9663 11.1502C12.9366 11.2403 12.8879 11.323 12.8236 11.3928C12.7509 11.4717 12.651 11.5272 12.4514 11.6381L11.5 12.1667M5.5 7.16665L7 7.99998M7 7.99998L8.5 7.16665M7 7.99998V9.66665M1 4.66665L2.5 5.49998M11.5 5.49998L13 4.66665M7 13V14.6667" stroke="#344054" stroke-width="1.33333" stroke-linecap="round" stroke-linejoin="round"/>
</svg>
