<svg width="25" height="25" viewBox="0 0 25 25" fill="none" xmlns="http://www.w3.org/2000/svg">
<rect width="25" height="25" rx="3" fill="#77ABF9"/>
<path d="M13.3334 5.51303V8.26673C13.3334 8.64009 13.3334 8.82678 13.406 8.96938C13.4699 9.09483 13.5719 9.19681 13.6974 9.26073C13.84 9.33339 14.0267 9.33339 14.4 9.33339H17.1537M9.33335 14V16M14.6667 12.6667V16M12 11V16M17.3334 10.6588V15.4667C17.3334 16.5868 17.3334 17.1468 17.1154 17.5747C16.9236 17.951 16.6177 18.2569 16.2413 18.4487C15.8135 18.6667 15.2535 18.6667 14.1334 18.6667H9.86669C8.74658 18.6667 8.18653 18.6667 7.75871 18.4487C7.38238 18.2569 7.07642 17.951 6.88467 17.5747C6.66669 17.1468 6.66669 16.5868 6.66669 15.4667V8.53334C6.66669 7.41324 6.66669 6.85319 6.88467 6.42536C7.07642 6.04904 7.38238 5.74308 7.75871 5.55133C8.18653 5.33334 8.74658 5.33334 9.86669 5.33334H12.0079C12.4971 5.33334 12.7416 5.33334 12.9718 5.3886C13.1759 5.4376 13.371 5.51841 13.5499 5.62806C13.7518 5.75175 13.9247 5.9247 14.2706 6.2706L16.3961 8.39608C16.742 8.74199 16.9149 8.91494 17.0386 9.11677C17.1483 9.29572 17.2291 9.49081 17.2781 9.69488C17.3334 9.92506 17.3334 10.1696 17.3334 10.6588Z" stroke="white" stroke-width="1.5" stroke-linecap="round" stroke-linejoin="round"/>
</svg>
