<svg width="72" height="13" viewBox="0 0 72 13" fill="none" xmlns="http://www.w3.org/2000/svg">
<path d="M9.01172 9.986H6.01572L4.46172 6.906H3.76172V9.986H0.961719V0.186H4.88172C5.94572 0.186 6.83239 0.503333 7.54172 1.138C8.24172 1.76333 8.59172 2.594 8.59172 3.63C8.59172 4.20867 8.45639 4.73133 8.18572 5.198C7.92439 5.66467 7.55572 6.04267 7.07972 6.332L9.01172 9.986ZM4.82572 2.762H3.76172V4.582H4.82572C5.12439 4.59133 5.35772 4.51667 5.52572 4.358C5.70305 4.19933 5.79172 3.97533 5.79172 3.686C5.79172 3.39667 5.70305 3.17267 5.52572 3.014C5.35772 2.846 5.12439 2.762 4.82572 2.762ZM13.775 6.598V3H16.365V10H13.775V9.314C13.3457 9.902 12.7203 10.196 11.899 10.196C11.115 10.196 10.4943 9.92533 10.037 9.384C9.589 8.84267 9.365 8.06333 9.365 7.046V3H11.955V6.766C11.955 7.39133 12.2443 7.704 12.823 7.704C13.131 7.704 13.3643 7.606 13.523 7.41C13.691 7.214 13.775 6.94333 13.775 6.598ZM21.9537 2.804C22.7377 2.804 23.3537 3.07467 23.8017 3.616C24.2591 4.15733 24.4877 4.93667 24.4877 5.954V10H21.8977V6.234C21.8977 5.60867 21.6084 5.296 21.0297 5.296C20.7217 5.296 20.4837 5.394 20.3157 5.59C20.1571 5.786 20.0777 6.05667 20.0777 6.402V10H17.4877V3H20.0777V3.686C20.5164 3.098 21.1417 2.804 21.9537 2.804ZM36.5332 9.986H33.5372L31.9832 6.906H31.2832V9.986H28.4832V0.186H32.4032C33.4672 0.186 34.3539 0.503333 35.0632 1.138C35.7632 1.76333 36.1132 2.594 36.1132 3.63C36.1132 4.20867 35.9779 4.73133 35.7072 5.198C35.4459 5.66467 35.0772 6.04267 34.6012 6.332L36.5332 9.986ZM32.3472 2.762H31.2832V4.582H32.3472C32.6459 4.59133 32.8792 4.51667 33.0472 4.358C33.2245 4.19933 33.3132 3.97533 33.3132 3.686C33.3132 3.39667 33.2245 3.17267 33.0472 3.014C32.8792 2.846 32.6459 2.762 32.3472 2.762ZM43.6957 7.382H39.0477C39.2717 7.84867 39.7477 8.082 40.4757 8.082C40.8957 8.082 41.2924 7.93267 41.6657 7.634L43.3597 9.062C42.6597 9.818 41.6704 10.196 40.3917 10.196C39.2064 10.196 38.2451 9.85067 37.5077 9.16C36.7891 8.46 36.4297 7.58267 36.4297 6.528C36.4297 5.464 36.7797 4.57733 37.4797 3.868C38.1891 3.15867 39.0804 2.804 40.1537 2.804C41.2177 2.804 42.0904 3.154 42.7717 3.854C43.4624 4.54467 43.8077 5.41733 43.8077 6.472C43.8077 6.76133 43.7704 7.06467 43.6957 7.382ZM39.0057 5.716H41.3577C41.2084 5.156 40.8304 4.876 40.2237 4.876C39.6171 4.876 39.2111 5.156 39.0057 5.716ZM49.0377 2.804C49.9804 2.804 50.7504 3.154 51.3477 3.854C51.9451 4.54467 52.2437 5.42667 52.2437 6.5C52.2437 7.57333 51.9451 8.45533 51.3477 9.146C50.7504 9.846 49.9804 10.196 49.0377 10.196C48.2351 10.196 47.6097 9.92067 47.1617 9.37V12.8H44.5717V3H47.1617V3.63C47.6097 3.07933 48.2351 2.804 49.0377 2.804ZM47.4977 7.438C47.7311 7.69 48.0344 7.816 48.4077 7.816C48.7811 7.816 49.0797 7.69 49.3037 7.438C49.5371 7.186 49.6537 6.87333 49.6537 6.5C49.6537 6.12667 49.5371 5.814 49.3037 5.562C49.0797 5.31 48.7811 5.184 48.4077 5.184C48.0344 5.184 47.7311 5.31 47.4977 5.562C47.2737 5.814 47.1617 6.12667 47.1617 6.5C47.1617 6.87333 47.2737 7.186 47.4977 7.438ZM56.52 10.196C55.4746 10.196 54.5833 9.84133 53.846 9.132C53.118 8.42267 52.754 7.54533 52.754 6.5C52.754 5.45467 53.118 4.57733 53.846 3.868C54.5646 3.15867 55.456 2.804 56.52 2.804C57.584 2.804 58.4753 3.15867 59.194 3.868C59.922 4.58667 60.286 5.464 60.286 6.5C60.286 7.54533 59.922 8.42267 59.194 9.132C58.4753 9.84133 57.584 10.196 56.52 10.196ZM55.666 7.396C55.89 7.62 56.1746 7.732 56.52 7.732C56.8653 7.732 57.1453 7.62 57.36 7.396C57.584 7.15333 57.696 6.85467 57.696 6.5C57.696 6.136 57.584 5.842 57.36 5.618C57.1546 5.38467 56.8746 5.268 56.52 5.268C56.1746 5.268 55.89 5.38467 55.666 5.618C55.4513 5.85133 55.344 6.14533 55.344 6.5C55.344 6.85467 55.4513 7.15333 55.666 7.396ZM63.691 3V4.358C63.8217 3.89133 64.0737 3.52733 64.447 3.266C64.8297 2.99533 65.2777 2.86 65.791 2.86V5.66C65.231 5.58533 64.741 5.69733 64.321 5.996C63.901 6.29467 63.691 6.76133 63.691 7.396V10H61.101V3H63.691ZM71.3128 3V5.464H69.8428V6.976C69.8428 7.20933 69.8988 7.382 70.0108 7.494C70.1228 7.606 70.2861 7.67133 70.5008 7.69C70.7248 7.69933 70.9955 7.69467 71.3128 7.676V10C69.8568 10.2053 68.8161 10.084 68.1908 9.636C67.5655 9.17867 67.2528 8.33867 67.2528 7.116V5.464H66.2728V3H67.2528V1.81L69.8428 1.04V3H71.3128Z" fill="white"/>
</svg>
