<svg width="100" height="40" viewBox="0 0 100 40" fill="none" xmlns="http://www.w3.org/2000/svg">
<rect x="0.25" y="0.25" width="99.5" height="39.5" rx="19.75" fill="white" stroke="#D9D9D9" stroke-width="0.5"/>
<rect x="50.25" y="0.25" width="49.5" height="39.5" rx="19.75" fill="#77ABF9" stroke="#77ABF9" stroke-width="0.5"/>
<path d="M17 18L29 18M21 14L21 26M20.2 14H25.8C26.9201 14 27.4802 14 27.908 14.218C28.2843 14.4097 28.5903 14.7157 28.782 15.092C29 15.5198 29 16.0799 29 17.2V22.8C29 23.9201 29 24.4802 28.782 24.908C28.5903 25.2843 28.2843 25.5903 27.908 25.782C27.4802 26 26.9201 26 25.8 26H20.2C19.0799 26 18.5198 26 18.092 25.782C17.7157 25.5903 17.4097 25.2843 17.218 24.908C17 24.4802 17 23.9201 17 22.8V17.2C17 16.0799 17 15.5198 17.218 15.092C17.4097 14.7157 17.7157 14.4097 18.092 14.218C18.5198 14 19.0799 14 20.2 14Z" stroke="#344054" stroke-width="1.33333" stroke-linecap="round" stroke-linejoin="round"/>
<path d="M73 20H70.0667C69.6933 20 69.5066 20 69.364 20.0727C69.2386 20.1366 69.1366 20.2386 69.0727 20.364C69 20.5066 69 20.6933 69 21.0667V24.9333C69 25.3067 69 25.4934 69.0727 25.636C69.1366 25.7614 69.2386 25.8634 69.364 25.9273C69.5066 26 69.6933 26 70.0667 26H73M73 26H77M73 26L73 17.7333C73 17.36 73 17.1733 73.0727 17.0307C73.1366 16.9052 73.2386 16.8032 73.364 16.7393C73.5066 16.6667 73.6933 16.6667 74.0667 16.6667H75.9333C76.3067 16.6667 76.4934 16.6667 76.636 16.7393C76.7614 16.8032 76.8634 16.9052 76.9273 17.0307C77 17.1733 77 17.36 77 17.7333V26M77 26H79.9333C80.3067 26 80.4934 26 80.636 25.9273C80.7614 25.8634 80.8634 25.7614 80.9273 25.636C81 25.4934 81 25.3067 81 24.9333V15.0667C81 14.6933 81 14.5066 80.9273 14.364C80.8634 14.2386 80.7614 14.1366 80.636 14.0727C80.4934 14 80.3067 14 79.9333 14H78.0667C77.6933 14 77.5066 14 77.364 14.0727C77.2386 14.1366 77.1366 14.2386 77.0727 14.364C77 14.5066 77 14.6933 77 15.0667V17.3333" stroke="white" stroke-width="1.33333" stroke-linecap="round" stroke-linejoin="round"/>
</svg>
